<?xml version="1.0" encoding="UTF-8"?>
<svg width="36px" height="36px" viewBox="0 0 36 36" version="1.1" xmlns="http://www.w3.org/2000/svg" xmlns:xlink="http://www.w3.org/1999/xlink">
    <title>category_cylinder</title>
    <defs>
        <linearGradient x1="0%" y1="51.7717527%" x2="100%" y2="51.7717527%" id="linearGradient-1">
            <stop stop-color="#D6D6D6" stop-opacity="0" offset="0%"></stop>
            <stop stop-color="#000000" stop-opacity="0.658517264" offset="100%"></stop>
        </linearGradient>
        <radialGradient cx="50%" cy="50.7184222%" fx="50%" fy="50.7184222%" r="49.2815778%" gradientTransform="translate(0.500000,0.507184),scale(0.642857,1.000000),rotate(90.000000),scale(1.000000,1.776713),translate(-0.500000,-0.507184)" id="radialGradient-2">
            <stop stop-color="#FFFFFF" stop-opacity="0" offset="0%"></stop>
            <stop stop-color="#FFFFFF" stop-opacity="0" offset="44.8289991%"></stop>
            <stop stop-color="#FFFFFF" offset="100%"></stop>
        </radialGradient>
    </defs>
    <g id="category_cylinder" stroke="none" stroke-width="1" fill="none" fill-rule="evenodd">
        <path d="M18,5 C21.6034614,5 24.5709762,6.75037849 24.9573948,9.00068213 L26,9 L26,28 L25.9509992,28.0008908 C25.5081066,30.2504371 22.117282,32 18,32 C13.882718,32 10.4918934,30.2504371 10.0490008,28.0008908 L10,28 L10,9 L11.0426052,9.00068213 C11.4290238,6.75037849 14.3965386,5 18,5 Z" id="MXN_BG_ID" fill="#5DA9C8"></path>
        <g id="MXN_0_ID" transform="translate(10.000000, 5.000000)">
            <path d="M16,4 L16,23 L15.9509992,23.0008908 C15.5081066,25.2504371 12.117282,27 8,27 C3.88271795,27 0.491893352,25.2504371 0.0490007932,23.0008908 L1.77635684e-14,23 L1.77635684e-14,4 L1.04277458,3.99969656 C1.01451044,4.16396135 1,4.33089132 1,4.5 C1,6.98528137 4.13400675,9 8,9 C11.8659932,9 15,6.98528137 15,4.5 C15,4.33089132 14.9854896,4.16396135 14.9572254,3.99969656 L16,4 Z" id="Combined-Shape" fill="url(#linearGradient-1)"></path>
            <ellipse id="Oval" fill="#5DA9C8" cx="8" cy="4.5" rx="7" ry="4.5"></ellipse>
            <ellipse id="Oval" fill="url(#radialGradient-2)" opacity="0.241466704" cx="8" cy="4.5" rx="7" ry="4.5"></ellipse>
        </g>
        <path d="M18,4.5 C19.9738003,4.5 21.7741291,5.01186363 23.1261959,5.8604244 C24.4076861,6.66469112 25.2903894,7.772484 25.4674951,9.03452998 L25.4674951,9.03452998 L25.499937,27.9636601 C25.306333,29.2272914 24.4148053,30.3366411 23.1268205,31.1416317 C21.7711733,31.9889111 19.9722017,32.5 18,32.5 C16.0264465,32.5 14.2263218,31.988264 12.874311,31.1398937 C11.5928573,30.3357971 10.7100696,29.2282276 10.5326353,27.9663979 L10.5326353,27.9663979 L10.5000632,9.03627209 C10.6932885,7.77285109 11.5847722,6.66351118 12.8728227,5.85847959 C14.2284991,5.01118185 16.0276187,4.5 18,4.5 Z" id="MXN_FG_ID" stroke="#0A0A0A"></path>
    </g>
</svg>