<?xml version="1.0" encoding="UTF-8"?>
<svg width="36px" height="36px" viewBox="0 0 36 36" version="1.1" xmlns="http://www.w3.org/2000/svg" xmlns:xlink="http://www.w3.org/1999/xlink">
    <title>category_platonic</title>
    <defs>
        <linearGradient x1="49.9505089%" y1="51.3254869%" x2="44.3898416%" y2="44.8828717%" id="linearGradient-1">
            <stop stop-color="#FFFFFF" offset="0%"></stop>
            <stop stop-color="#FFFFFF" stop-opacity="0" offset="100%"></stop>
        </linearGradient>
        <linearGradient x1="50.6026944%" y1="53.8234566%" x2="55.2888471%" y2="50%" id="linearGradient-2">
            <stop stop-color="#FFFFFF" offset="0%"></stop>
            <stop stop-color="#FFFFFF" stop-opacity="0" offset="100%"></stop>
        </linearGradient>
        <linearGradient x1="54.4444046%" y1="48.6212802%" x2="53.9538214%" y2="51.4253623%" id="linearGradient-3">
            <stop stop-color="#FFFFFF" offset="0%"></stop>
            <stop stop-color="#FFFFFF" stop-opacity="0" offset="100%"></stop>
            <stop stop-color="#FFFFFF" stop-opacity="0" offset="100%"></stop>
        </linearGradient>
        <linearGradient x1="51.337547%" y1="45.7168704%" x2="46.6120201%" y2="41.0123072%" id="linearGradient-4">
            <stop stop-color="#FFFFFF" offset="0%"></stop>
            <stop stop-color="#FFFFFF" stop-opacity="0" offset="100%"></stop>
        </linearGradient>
        <linearGradient x1="50.6791045%" y1="51.9008375%" x2="57.2975209%" y2="44.3835195%" id="linearGradient-5">
            <stop stop-color="#FFFFFF" offset="0%"></stop>
            <stop stop-color="#FFFFFF" stop-opacity="0" offset="100%"></stop>
        </linearGradient>
        <linearGradient x1="56.0413719%" y1="48.615911%" x2="54.9619609%" y2="51.1293889%" id="linearGradient-6">
            <stop stop-color="#FFFFFF" offset="0%"></stop>
            <stop stop-color="#FFFFFF" stop-opacity="0" offset="100%"></stop>
            <stop stop-color="#FFFFFF" stop-opacity="0" offset="100%"></stop>
        </linearGradient>
        <linearGradient x1="56.7394084%" y1="62.1993035%" x2="42.7764274%" y2="39.6011406%" id="linearGradient-7">
            <stop stop-color="#FFFFFF" offset="0%"></stop>
            <stop stop-color="#FFFFFF" stop-opacity="0" offset="100%"></stop>
        </linearGradient>
        <linearGradient x1="50.7901077%" y1="53.4328189%" x2="46.6293191%" y2="57.292363%" id="linearGradient-8">
            <stop stop-color="#FFFFFF" offset="0%"></stop>
            <stop stop-color="#FFFFFF" stop-opacity="0" offset="100%"></stop>
        </linearGradient>
        <linearGradient x1="49.5288489%" y1="58.0926295%" x2="50.3220298%" y2="57.2373223%" id="linearGradient-9">
            <stop stop-color="#FFFFFF" offset="0%"></stop>
            <stop stop-color="#FFFFFF" stop-opacity="0" offset="100%"></stop>
            <stop stop-color="#FFFFFF" stop-opacity="0" offset="100%"></stop>
        </linearGradient>
        <linearGradient x1="63.1591174%" y1="50.5020302%" x2="62.5088603%" y2="49.4648703%" id="linearGradient-10">
            <stop stop-color="#FFFFFF" offset="0%"></stop>
            <stop stop-color="#FFFFFF" stop-opacity="0" offset="100%"></stop>
        </linearGradient>
        <linearGradient x1="100%" y1="58.2699024%" x2="0%" y2="58.2699024%" id="linearGradient-11">
            <stop stop-color="#FFFFFF" offset="0%"></stop>
            <stop stop-color="#FFFFFF" stop-opacity="0" offset="100%"></stop>
        </linearGradient>
        <linearGradient x1="56.3085074%" y1="47.7023104%" x2="61.4932133%" y2="52.7900434%" id="linearGradient-12">
            <stop stop-color="#FFFFFF" offset="0%"></stop>
            <stop stop-color="#FFFFFF" stop-opacity="0" offset="100%"></stop>
            <stop stop-color="#FFFFFF" stop-opacity="0" offset="100%"></stop>
        </linearGradient>
        <linearGradient x1="51.4478484%" y1="50.5161551%" x2="51.7664%" y2="49.6201488%" id="linearGradient-13">
            <stop stop-color="#FFFFFF" offset="0%"></stop>
            <stop stop-color="#FFFFFF" stop-opacity="0" offset="100%"></stop>
        </linearGradient>
        <linearGradient x1="50%" y1="50%" x2="45.4591016%" y2="54.6876897%" id="linearGradient-14">
            <stop stop-color="#FFFFFF" offset="0%"></stop>
            <stop stop-color="#FFFFFF" stop-opacity="0" offset="100%"></stop>
        </linearGradient>
        <linearGradient x1="0%" y1="55.7413695%" x2="100%" y2="55.7413695%" id="linearGradient-15">
            <stop stop-color="#FFFFFF" offset="0%"></stop>
            <stop stop-color="#FFFFFF" stop-opacity="0" offset="100%"></stop>
            <stop stop-color="#FFFFFF" stop-opacity="0" offset="100%"></stop>
        </linearGradient>
        <linearGradient x1="54.7363557%" y1="55.7866584%" x2="57.8905319%" y2="44.2133416%" id="linearGradient-16">
            <stop stop-color="#FFFFFF" offset="0%"></stop>
            <stop stop-color="#FFFFFF" stop-opacity="0" offset="100%"></stop>
        </linearGradient>
        <linearGradient x1="50.3122508%" y1="58.2699024%" x2="49.8118519%" y2="58.1917874%" id="linearGradient-17">
            <stop stop-color="#FFFFFF" offset="0%"></stop>
            <stop stop-color="#FFFFFF" stop-opacity="0" offset="100%"></stop>
        </linearGradient>
        <linearGradient x1="50%" y1="49.980405%" x2="52.1638595%" y2="51.7435765%" id="linearGradient-18">
            <stop stop-color="#FFFFFF" offset="0%"></stop>
            <stop stop-color="#FFFFFF" stop-opacity="0" offset="100%"></stop>
            <stop stop-color="#FFFFFF" stop-opacity="0" offset="100%"></stop>
        </linearGradient>
        <linearGradient x1="53.6345843%" y1="100%" x2="53.6345843%" y2="0%" id="linearGradient-19">
            <stop stop-color="#FFFFFF" offset="0%"></stop>
            <stop stop-color="#FFFFFF" stop-opacity="0" offset="100%"></stop>
        </linearGradient>
        <linearGradient x1="51.0505382%" y1="53.3958394%" x2="43.9503247%" y2="61.9199653%" id="linearGradient-20">
            <stop stop-color="#FFFFFF" offset="0%"></stop>
            <stop stop-color="#FFFFFF" stop-opacity="0" offset="100%"></stop>
        </linearGradient>
        <linearGradient x1="50.5638117%" y1="47.4386928%" x2="57.4787745%" y2="53.3412578%" id="linearGradient-21">
            <stop stop-color="#FFFFFF" offset="0%"></stop>
            <stop stop-color="#FFFFFF" stop-opacity="0" offset="100%"></stop>
            <stop stop-color="#FFFFFF" stop-opacity="0" offset="100%"></stop>
        </linearGradient>
    </defs>
    <g id="category_platonic" stroke="none" stroke-width="1" fill="none" fill-rule="evenodd">
        <polygon id="MXN_BG_ID" fill="#5DA9C8" points="18 4 30.1243557 11 30.1243557 25 18 32 5.87564435 25 5.87564435 11"></polygon>
        <g id="MXN_0_ID" transform="translate(6.825322, 4.801588)">
            <polygon id="Path-3" stroke="#FFFFFF" opacity="0.0561755952" points="1.11910481e-13 6.76932492 22.2923859 6.79291996 18.2083738 19.6314315 11.0982 26.0419711 5.19660967 19.6214379"></polygon>
            <polyline id="Path-26" stroke="#F9F9F9" opacity="0.0561755952" points="0.0615844151 19.6169364 5.12448715 19.5878194 11.2077773 6.75930142 11.2077773 0.308713443"></polyline>
            <g id="Group" opacity="0.148716518" transform="translate(0.000000, 0.342332)">
                <polygon id="Path-20" fill="url(#linearGradient-1)" points="11.1903065 6.42633674 8.60701128 8.27784606 5.17467754 15.5373923 5.19660967 19.2890995"></polygon>
                <polygon id="Path-20" fill="url(#linearGradient-2)" points="0.0619619637 6.43062375 3.030797 8.27784606 5.17467754 15.5373923 5.19660967 19.2890995"></polygon>
                <polygon id="Path-20" fill="url(#linearGradient-3)" points="0.0619619637 6.43062375 3.030797 8.27784606 8.60701128 8.27784606 11.1860947 6.43418301"></polygon>
                <polygon id="Path-20" fill="url(#linearGradient-4)" points="22.2923859 6.4381732 20.1746775 8.27784606 17.6139446 14.7284452 18.2074139 19.2834322"></polygon>
                <polygon id="Path-20" fill="url(#linearGradient-5)" points="11.1992765 6.43411147 14.6062817 8.27784606 17.6139446 14.7284452 18.1441684 19.279106"></polygon>
                <polygon id="Path-20" fill="url(#linearGradient-6)" points="11.1898507 6.43062375 14.6062817 8.27784606 20.1746775 8.27784606 22.2923859 6.4381732"></polygon>
                <polygon id="Path-20" fill="url(#linearGradient-7)" points="0.0456518503 19.3007519 1.29004382 17.5216732 2.67467754 16.7654378 5.19351687 19.308223"></polygon>
                <polygon id="Path-20" fill="url(#linearGradient-8)" points="0.0619619637 6.43062375 0.779861781 11.6988219 2.67467754 16.7654378 5.19351687 19.279106"></polygon>
                <polygon id="Path-20" fill="url(#linearGradient-9)" points="0.0619619637 6.43062375 0.779861781 11.6988219 1.29004382 17.5216732 0.0399862354 19.308223"></polygon>
                <polygon id="Path-20" fill="url(#linearGradient-10)" points="0.0676275785 6.41928119 3.76454556 5.47941983 9.74647805 5.32239547 11.2028209 6.4381732"></polygon>
                <polygon id="Path-20" fill="url(#linearGradient-11)" points="11.1933597 -0.00338223208 9.74647805 2.12467362 9.74647805 5.32239547 11.2028209 6.4381732"></polygon>
                <polygon id="Path-20" fill="url(#linearGradient-12)" points="11.1933597 -0.00338223208 9.74647805 2.12467362 3.76454556 5.47941983 0.0619619637 6.42675223"></polygon>
                <polygon id="Path-20" fill="url(#linearGradient-13)" points="11.1884198 6.42557997 12.9132538 5.32239547 18.9014553 5.61648309 22.2923859 6.45058798"></polygon>
                <polygon id="Path-20" fill="url(#linearGradient-14)" points="11.2112082 -0.00415904833 13.0533225 2.39397095 18.9014553 5.61648309 22.2923859 6.4381732"></polygon>
                <polygon id="Path-20" fill="url(#linearGradient-15)" points="11.1992765 1.02140518e-14 13.0533225 2.39397095 12.9132538 5.32239547 11.1898507 6.42429219"></polygon>
                <polygon id="Path-20" fill="url(#linearGradient-16)" points="18.2083738 19.2805526 19.7134224 17.891189 21.278607 17.891189 22.2923859 19.2796521"></polygon>
                <polygon id="Path-20" fill="url(#linearGradient-17)" points="22.2923859 6.45058798 21.6746775 10.8337651 21.278607 17.891189 22.2923859 19.279106"></polygon>
                <polygon id="Path-20" fill="url(#linearGradient-18)" points="22.2923859 6.45058798 21.6746775 10.8337651 19.7134224 17.891189 18.1441684 19.2796521"></polygon>
                <polygon id="Path-20" fill="url(#linearGradient-19)" points="5.19351687 19.308223 8.69781455 17.6188353 15.0596385 17.891189 18.1385028 19.279106"></polygon>
                <polygon id="Path-20" fill="url(#linearGradient-20)" points="11.1909775 6.42429219 11.24431 10.5480541 15.0596385 17.891189 18.1441684 19.2796521"></polygon>
                <polygon id="Path-20" fill="url(#linearGradient-21)" points="11.1900117 6.42699294 11.24431 10.5480541 8.69781455 17.6188353 5.19660967 19.2890995"></polygon>
            </g>
            <polygon id="Path-48" fill="#000000" opacity="0.0871930804" points="0.0133866118 6.77137491 5.19351687 19.6214379 0.0484813062 19.650555"></polygon>
            <polygon id="Path-48" fill="#2E2E2E" opacity="0.135928199" points="0.0150420925 6.77781949 11.1943061 9.32587341e-15 11.2043734 6.77297029"></polygon>
            <polygon id="Path-48" fill="#000000" opacity="0.197428385" points="22.3051235 6.77137491 11.1943061 -8.8817842e-16 11.2348974 6.77137491"></polygon>
            <polygon id="Path-48" fill="#FFFFFF" opacity="0.277739025" points="18.2038098 19.6214379 5.17303367 19.6214379 11.2098291 6.77870815"></polygon>
            <polygon id="Path-48" fill="#000000" opacity="0.0951450893" points="18.190921 19.6214379 5.17303367 19.6214379 11.1712789 26.0707649"></polygon>
            <polygon id="Path-48" fill="#000000" opacity="0.197428385" points="0.0399862354 19.654212 5.17980878 19.6314315 11.1746775 26.0707649"></polygon>
            <polygon id="Path-48" fill="#000000" opacity="0.32014974" points="18.2024485 19.6232324 22.3258308 19.6214379 11.1950644 26.0419711"></polygon>
            <polygon id="Path-48" fill="#000000" opacity="0.197428385" points="18.1996665 19.6219841 22.3128556 6.77137491 22.3408807 19.6219976"></polygon>
        </g>
        <path d="M18,4.57735027 L29.6243557,11.2886751 L29.6243557,24.7113249 L18,31.4226497 L6.37564435,24.7113249 L6.37564435,11.2886751 L18,4.57735027 Z" id="MXN_FG_ID" stroke="#0A0A0A"></path>
    </g>
</svg>