<?xml version="1.0" encoding="UTF-8"?>
<svg width="36px" height="36px" viewBox="0 0 36 36" version="1.1" xmlns="http://www.w3.org/2000/svg" xmlns:xlink="http://www.w3.org/1999/xlink">
    <title>category_polygon</title>
    <defs>
        <linearGradient x1="50.9546048%" y1="54.9449838%" x2="56.5569124%" y2="48.7687442%" id="linearGradient-1">
            <stop stop-color="#FFFFFF" offset="0%"></stop>
            <stop stop-color="#FFFFFF" stop-opacity="0" offset="100%"></stop>
        </linearGradient>
        <linearGradient x1="53.094046%" y1="0%" x2="53.094046%" y2="100%" id="linearGradient-2">
            <stop stop-color="#FFFFFF" offset="0%"></stop>
            <stop stop-color="#FFFFFF" stop-opacity="0" offset="100%"></stop>
        </linearGradient>
        <linearGradient x1="51.048409%" y1="47.469675%" x2="44.4627419%" y2="40.9787431%" id="linearGradient-3">
            <stop stop-color="#FFFFFF" offset="0%"></stop>
            <stop stop-color="#FFFFFF" stop-opacity="0" offset="100%"></stop>
            <stop stop-color="#FFFFFF" stop-opacity="0" offset="100%"></stop>
        </linearGradient>
    </defs>
    <g id="category_polygon" stroke="none" stroke-width="1" fill="none" fill-rule="evenodd">
        <polygon id="MXN_BG_ID" fill="#5DA9C8" points="17.8047774 29.8726887 30.6645327 7.71630562 6.12097536 8.1444763"></polygon>
        <g id="MXN_0_ID" opacity="0.225585938" transform="translate(6.034611, 7.716306)">
            <polygon id="Path-20" fill="url(#linearGradient-1)" points="11.6386963 20.9328427 11.6386963 17.1855886 4.36009428 1.86237031 0 0.351059855"></polygon>
            <polygon id="Path-20" fill="url(#linearGradient-2)" points="24.0989214 0 19.079624 2.02491992 4.36009428 1.86237031 0 0.351059855"></polygon>
            <polygon id="Path-20" fill="url(#linearGradient-3)" points="24.0989214 2.84217094e-14 19.079624 2.02491992 11.6386963 17.1855886 11.7250604 20.9328427"></polygon>
        </g>
        <g id="MXN_1_ID" transform="translate(4.000000, 6.000000)" fill="#FFFFFF" stroke="#000000">
            <path d="M13.761808,20.766901 C14.4521639,20.766901 15.0771639,21.046723 15.529575,21.499134 C15.981986,21.9515451 16.261808,22.5765451 16.261808,23.266901 C16.261808,23.9572569 15.981986,24.5822569 15.529575,25.034668 C15.0771639,25.487079 14.4521639,25.766901 13.761808,25.766901 C13.0714521,25.766901 12.4464521,25.487079 11.994041,25.034668 C11.54163,24.5822569 11.261808,23.9572569 11.261808,23.266901 C11.261808,22.5765451 11.54163,21.9515451 11.994041,21.499134 C12.4464521,21.046723 13.0714521,20.766901 13.761808,20.766901 Z" id="Oval"></path>
            <path d="M26,-0.5 C26.6903559,-0.5 27.3153559,-0.220177969 27.767767,0.232233047 C28.220178,0.684644063 28.5,1.30964406 28.5,2 C28.5,2.69035594 28.220178,3.31535594 27.767767,3.76776695 C27.3153559,4.22017797 26.6903559,4.5 26,4.5 C25.3096441,4.5 24.6846441,4.22017797 24.232233,3.76776695 C23.779822,3.31535594 23.5,2.69035594 23.5,2 C23.5,1.30964406 23.779822,0.684644063 24.232233,0.232233047 C24.6846441,-0.220177969 25.3096441,-0.5 26,-0.5 Z" id="Oval"></path>
            <path d="M2,-0.5 C2.69035594,-0.5 3.31535594,-0.220177969 3.76776695,0.232233047 C4.22017797,0.684644063 4.5,1.30964406 4.5,2 C4.5,2.69035594 4.22017797,3.31535594 3.76776695,3.76776695 C3.31535594,4.22017797 2.69035594,4.5 2,4.5 C1.30964406,4.5 0.684644063,4.22017797 0.232233047,3.76776695 C-0.220177969,3.31535594 -0.5,2.69035594 -0.5,2 C-0.5,1.30964406 -0.220177969,0.684644063 0.232233047,0.232233047 C0.684644063,-0.220177969 1.30964406,-0.5 2,-0.5 Z" id="Oval"></path>
        </g>
        <path d="M30,5.5 C30.6903559,5.5 31.3153559,5.77982203 31.767767,6.23223305 C32.220178,6.68464406 32.5,7.30964406 32.5,8 C32.5,8.69035594 32.220178,9.31535594 31.767767,9.76776695 C31.3153559,10.220178 30.6903559,10.5 30,10.5 C29.7054009,10.5 29.4226729,10.4492286 29.1601787,10.3555468 L29.1601787,10.3555468 L19.2290978,27.2425563 C19.854882,27.6969349 20.261808,28.4343951 20.261808,29.266901 C20.261808,29.9572569 19.981986,30.5822569 19.529575,31.034668 C19.0771639,31.487079 18.4521639,31.766901 17.761808,31.766901 C17.0714521,31.766901 16.4464521,31.487079 15.994041,31.034668 C15.54163,30.5822569 15.261808,29.9572569 15.261808,29.266901 C15.261808,28.4034044 15.69962,27.6421865 16.3652763,27.1929931 L16.3652763,27.1929931 L6.60459625,10.46982 C5.65109818,10.5467363 4.84298274,10.276552 4.28849143,9.77915317 C3.78794319,9.33014325 3.5,8.69852655 3.5,8 C3.5,7.30964406 3.77982203,6.68464406 4.23223305,6.23223305 C4.68464406,5.77982203 5.30964406,5.5 6,5.5 C6.53665436,5.5 7.03387686,5.6689775 7.44114658,5.95688203 C7.95172853,6.31781936 8.32136197,6.86512034 8.45012142,7.50008893 L8.45012142,7.50008893 L27.5498786,7.50008893 C27.678638,6.86512034 28.0482715,6.31781936 28.5588534,5.95688203 C28.9661231,5.6689775 29.4633456,5.5 30,5.5 Z" id="Combined-Shape" stroke="#0A0A0A"></path>
    </g>
</svg>