<?xml version="1.0" encoding="UTF-8"?>
<svg width="36px" height="36px" viewBox="0 0 36 36" version="1.1" xmlns="http://www.w3.org/2000/svg" xmlns:xlink="http://www.w3.org/1999/xlink">
    <title>category_bezier</title>
    <defs>
        <path d="M14.1327033,-0.00256040051 L27.8268817,7.76335729 L27.9179561,24.3907209 C24.9155865,24.796907 21.9435321,25.6643674 19.0017928,26.9931022 C14.5891839,28.9862044 6.64389931,30.7707455 1.9245726,22.63352 C-2.7947541,14.4962946 6.94237898,6.86667315 9.62185883,4.45195846 C11.4081787,2.84214866 12.9117936,1.35730904 14.1327033,-0.00256040051 Z" id="path-1"></path>
        <radialGradient cx="66.2323754%" cy="77.995431%" fx="66.2323754%" fy="77.995431%" r="71.5840237%" gradientTransform="translate(0.662324,0.779954),scale(1.000000,0.829952),rotate(122.661808),scale(1.000000,0.651731),translate(-0.662324,-0.779954)" id="radialGradient-3">
            <stop stop-color="#001E35" offset="0%"></stop>
            <stop stop-color="#000000" stop-opacity="0" offset="100%"></stop>
        </radialGradient>
        <radialGradient cx="47.3284135%" cy="42.1815677%" fx="47.3284135%" fy="42.1815677%" r="80.5803135%" gradientTransform="translate(0.473284,0.421816),scale(1.000000,0.818182),rotate(53.386759),translate(-0.473284,-0.421816)" id="radialGradient-4">
            <stop stop-color="#FFFFFF" stop-opacity="0.601070804" offset="0%"></stop>
            <stop stop-color="#FFFFFF" stop-opacity="0" offset="100%"></stop>
            <stop stop-color="#FFFFFF" stop-opacity="0" offset="100%"></stop>
        </radialGradient>
        <radialGradient cx="38.5155341%" cy="47.6473348%" fx="38.5155341%" fy="47.6473348%" r="42.074391%" gradientTransform="translate(0.385155,0.476473),scale(1.000000,0.894737),rotate(124.665410),scale(1.000000,0.576743),translate(-0.385155,-0.476473)" id="radialGradient-5">
            <stop stop-color="#FFFFFF" offset="0%"></stop>
            <stop stop-color="#FFFFFF" stop-opacity="0" offset="100%"></stop>
        </radialGradient>
    </defs>
    <g id="category_bezier" stroke="none" stroke-width="1" fill="none" fill-rule="evenodd">
        <g id="MXN_BG_ID" transform="translate(3.693548, 2.000000)">
            <mask id="mask-2" fill="white">
                <use xlink:href="#path-1"></use>
            </mask>
            <use id="Path-15" fill="#5DA9C8" xlink:href="#path-1"></use>
            <path d="M12.8454504,33.0647919 C16.0057847,33.0647919 31.9562868,34.2817124 31.9562868,25.1805061 C31.9562868,16.0792998 23.0885154,1.05088639 19.9281811,1.05088639 C16.7678468,1.05088639 16.7802944,17.525245 8.62525055,22.4252897 C0.470206702,27.3253344 9.68511615,33.0647919 12.8454504,33.0647919 Z" id="Oval" fill="url(#radialGradient-3)" opacity="0.531296503" mask="url(#mask-2)" transform="translate(18.648803, 17.084927) rotate(31.000000) translate(-18.648803, -17.084927) "></path>
            <path d="M14.3064516,0 L27.9179561,8.13509388 L28.0035857,33 C23.744289,31.8075124 21.014912,31.0627581 19.8154546,30.7657372 C18.0162685,30.3202058 7.68735706,27.2487117 5.41073371,25.5240622 C3.13411035,23.7994128 -0.220757781,21.2895429 1.45667629,14.4595243 C2.57496567,9.90617854 6.85822411,5.08633711 14.3064516,0 Z" id="Path-15" fill="url(#radialGradient-4)" opacity="0.646298363" mask="url(#mask-2)"></path>
            <path d="M5.81814291,31.6154213 C10.604321,33.6256476 32.0187367,14.3629155 32.0187367,4.77240343 C32.0187367,-4.81810868 15.5295515,-6.23866384 8.9189693,-6.23866384 C2.30838714,-6.23866384 -1.98126325,12.2100535 -1.98126325,18.5625696 C-1.98126325,24.9150856 1.03196481,29.6051951 5.81814291,31.6154213 Z" id="Oval" fill="url(#radialGradient-5)" opacity="0.400762649" mask="url(#mask-2)" transform="translate(15.018737, 12.761336) rotate(21.000000) translate(-15.018737, -12.761336) "></path>
        </g>
        <g id="MXN_0_ID" transform="translate(11.000000, 16.000000)" fill="#FFFFFF">
            <circle id="Oval" cx="3" cy="3" r="1"></circle>
        </g>
        <path d="M17.9277751,2.62981706 L31.0220228,10.0555163 L31.1091232,25.9573427 C28.2080718,26.3926287 25.3347646,27.2522797 22.4895212,28.537429 C19.9881143,29.6672729 16.3123031,30.7442128 12.7759312,29.8414252 C10.3070224,29.2111463 7.91806297,27.6025418 6.05064268,24.3826715 C4.45006333,21.6228975 4.61018145,18.9253343 5.58353305,16.4948244 C7.19919493,12.4604321 11.0072704,9.14410935 13.0010718,7.39682324 C13.2462253,7.18198071 13.4649015,6.99031471 13.6501333,6.82338607 C15.321572,5.31710576 16.7473075,3.9191066 17.9277751,2.62981706 L17.9277751,2.62981706 Z" id="MXN_FG_ID" stroke="#0A0A0A"></path>
    </g>
</svg>