<?xml version="1.0" encoding="UTF-8"?>
<svg width="36px" height="36px" viewBox="0 0 36 36" version="1.1" xmlns="http://www.w3.org/2000/svg" xmlns:xlink="http://www.w3.org/1999/xlink">
    <title>category_boole</title>
    <defs>
        <filter x="-12.0%" y="-22.0%" width="123.9%" height="144.0%" filterUnits="objectBoundingBox" id="filter-1">
            <feGaussianBlur stdDeviation="0.5" in="SourceGraphic"></feGaussianBlur>
        </filter>
        <filter x="-12.0%" y="-22.1%" width="124.0%" height="144.2%" filterUnits="objectBoundingBox" id="filter-2">
            <feGaussianBlur stdDeviation="0.5" in="SourceGraphic"></feGaussianBlur>
        </filter>
        <filter x="25.0%" y="0.0%" width="50.0%" height="100.0%" filterUnits="objectBoundingBox" id="filter-3">
            <feGaussianBlur stdDeviation="0" in="SourceGraphic"></feGaussianBlur>
        </filter>
        <linearGradient x1="42.8037135%" y1="53.1696095%" x2="50%" y2="45.6286318%" id="linearGradient-4">
            <stop stop-color="#FFFFFF" stop-opacity="0" offset="0%"></stop>
            <stop stop-color="#FFFFFF" offset="100%"></stop>
        </linearGradient>
        <linearGradient x1="50%" y1="46.0624456%" x2="55.5481229%" y2="52.4303566%" id="linearGradient-5">
            <stop stop-color="#FFFFFF" stop-opacity="0" offset="0%"></stop>
            <stop stop-color="#FFFFFF" offset="100%"></stop>
        </linearGradient>
        <linearGradient x1="61.5712477%" y1="50.9523294%" x2="55.207318%" y2="41.5088907%" id="linearGradient-6">
            <stop stop-color="#FFFFFF" stop-opacity="0" offset="0%"></stop>
            <stop stop-color="#FFFFFF" offset="100%"></stop>
        </linearGradient>
        <linearGradient x1="55.5481229%" y1="47.422347%" x2="48.0694327%" y2="54.1562185%" id="linearGradient-7">
            <stop stop-color="#FFFFFF" stop-opacity="0" offset="0%"></stop>
            <stop stop-color="#FFFFFF" offset="100%"></stop>
        </linearGradient>
        <linearGradient x1="41.7250193%" y1="54.9249431%" x2="50%" y2="45.3483802%" id="linearGradient-8">
            <stop stop-color="#FFFFFF" stop-opacity="0" offset="0%"></stop>
            <stop stop-color="#FFFFFF" offset="100%"></stop>
        </linearGradient>
        <linearGradient x1="43.5299728%" y1="36.8734944%" x2="34.6691172%" y2="48.3967056%" id="linearGradient-9">
            <stop stop-color="#FFFFFF" stop-opacity="0" offset="0%"></stop>
            <stop stop-color="#FFFFFF" offset="100%"></stop>
        </linearGradient>
        <linearGradient x1="51.1675435%" y1="46.5790913%" x2="48.4241653%" y2="47.2457198%" id="linearGradient-10">
            <stop stop-color="#FFFFFF" stop-opacity="0" offset="0%"></stop>
            <stop stop-color="#FFFFFF" offset="100%"></stop>
        </linearGradient>
        <linearGradient x1="0%" y1="56.4343492%" x2="100%" y2="56.4343492%" id="linearGradient-11">
            <stop stop-color="#FFFFFF" stop-opacity="0" offset="0%"></stop>
            <stop stop-color="#FFFFFF" offset="100%"></stop>
        </linearGradient>
        <linearGradient x1="57.8125%" y1="54.1706621%" x2="47.6360887%" y2="42.1430633%" id="linearGradient-12">
            <stop stop-color="#FFFFFF" stop-opacity="0" offset="0%"></stop>
            <stop stop-color="#FFFFFF" offset="100%"></stop>
        </linearGradient>
        <linearGradient x1="43.1314688%" y1="45.368605%" x2="53.690195%" y2="59.4777919%" id="linearGradient-13">
            <stop stop-color="#FFFFFF" stop-opacity="0" offset="0%"></stop>
            <stop stop-color="#FFFFFF" offset="100%"></stop>
        </linearGradient>
        <linearGradient x1="100%" y1="43.5552284%" x2="0%" y2="43.5552284%" id="linearGradient-14">
            <stop stop-color="#FFFFFF" stop-opacity="0" offset="0%"></stop>
            <stop stop-color="#FFFFFF" offset="100%"></stop>
        </linearGradient>
    </defs>
    <g id="category_boole" stroke="none" stroke-width="1" fill="none" fill-rule="evenodd">
        <g id="category_cube">
            <polygon id="MXN_BG_ID" fill="#606EC6" points="18 2 31.8564065 10 31.8564065 26 18 34 4.14359354 26 4.14359354 10"></polygon>
            <g id="MXN_0_ID" transform="translate(4.000000, 2.172165)">
                <line x1="27.5899774" y1="8.01698801" x2="14" y2="15.8278352" id="Path-4" stroke="#FFFFFF" stroke-width="0.5" opacity="0.21312314" filter="url(#filter-1)"></line>
                <line x1="14" y1="8.06215174" x2="0.475546511" y2="15.8278352" id="Path-4" stroke="#FFFFFF" stroke-width="0.5" opacity="0.21312314" filter="url(#filter-2)" transform="translate(7.237773, 11.944993) scale(-1, 1) translate(-7.237773, -11.944993) "></line>
                <line x1="14.0355746" y1="31.1827125" x2="14.0355746" y2="15.8278352" id="Path-7" stroke="#FFFFFF" stroke-width="0.5" opacity="0.21312314" filter="url(#filter-3)"></line>
                <polygon id="Rectangle" fill="url(#linearGradient-4)" opacity="0.174548921" points="13.9309207 0.138294359 27.6475541 8.07096012 25.6200069 9.18946218 12.1907027 1.1153194"></polygon>
                <polygon id="Rectangle" fill="url(#linearGradient-5)" opacity="0.174548921" points="27.5204301 8.00136879 14.0310535 15.7995602 11.7617246 14.4886235 25.3747262 6.79563598"></polygon>
                <polygon id="Rectangle" fill="url(#linearGradient-6)" opacity="0.174548921" points="16.2345307 1.36050671 2.93459269 9.48287785 0.544837488 8.09729183 14.0725722 0.17380137"></polygon>
                <polygon id="Rectangle" fill="url(#linearGradient-7)" opacity="0.174548921" points="0.422362993 8.0899421 13.9817299 15.8720598 16.422363 14.6457857 2.33754968 6.87205983"></polygon>
                <polygon id="Rectangle" fill="url(#linearGradient-8)" opacity="0.13688151" points="0.435310763 7.94355525 14.0725722 15.9321527 14.020951 18.2483554 0.456183199 10.4158654"></polygon>
                <polygon id="Rectangle" fill="url(#linearGradient-9)" opacity="0.13688151" points="0.465271536 21.1882513 14.0233281 29.0990898 14.0606494 31.4555998 0.456183199 23.5938868"></polygon>
                <polygon id="Rectangle" fill="url(#linearGradient-10)" opacity="0.13688151" points="3.44278869 25.0972918 3.4561832 9.53116682 0.456183199 8.09729183 0.641440412 23.6845967"></polygon>
                <polygon id="Rectangle" fill="url(#linearGradient-11)" opacity="0.13688151" points="13.7709403 31.3300487 14 15.8278352 11.1399432 14.3300487 11 29.7829409"></polygon>
                <polygon id="Rectangle" fill="url(#linearGradient-12)" opacity="0.13688151" points="14 15.8278352 27.5247114 8.01848551 27.6808991 11.3016093 14.0103856 18.8278352"></polygon>
                <polygon id="Rectangle" fill="url(#linearGradient-13)" opacity="0.13688151" points="14 28.3791527 27.6005543 20.3612453 27.6005543 23.695112 14 31.1714072"></polygon>
                <polygon id="Rectangle" fill="url(#linearGradient-14)" opacity="0.13688151" points="17.0069133 29.6250991 16.9314075 14.1137666 14.0355746 15.8278352 14.0069133 31.1137666"></polygon>
                <polygon id="Rectangle" fill="url(#linearGradient-11)" opacity="0.13688151" points="27.41575 23.3136104 27.3858492 8.09729183 24.5228838 9.94455032 24.41575 25.0972918"></polygon>
                <polygon id="Path-10" fill="#1A1A19" opacity="0.3" points="14.0779365 15.8776883 27.6005543 8.07087024 27.561031 23.6369038 14.0355746 31.4378262"></polygon>
                <polygon id="Path-10" fill="#1A1A19" opacity="0.166457403" transform="translate(7.262038, 19.783281) scale(-1, 1) translate(-7.262038, -19.783281) " points="0.50487755 15.8148005 13.9792377 8.09729183 14.0678919 23.5938868 0.456183199 31.46927"></polygon>
                <path d="M14.0449069,16.3802173 C14.3210492,16.3802173 14.5449069,16.1563597 14.5449069,15.8802173 C14.5449069,15.604075 14.3210492,15.3802173 14.0449069,15.3802173 C13.7687645,15.3802173 13.5449069,15.604075 13.5449069,15.8802173 C13.5449069,16.1563597 13.7687645,16.3802173 14.0449069,16.3802173 Z" id="Oval" fill="#FFFFFF"></path>
            </g>
            <path d="M18,2.57735027 L31.3564065,10.2886751 L31.3564065,25.7113249 L18,33.4226497 L4.64359354,25.7113249 L4.64359354,10.2886751 L18,2.57735027 Z" id="MXN_FG_ID" stroke="#0A0A0A"></path>
        </g>
        <polygon id="Path-54" fill="#4B5492" points="11 13.8212756 18 10 18.1170531 18 11 22.0507191"></polygon>
        <polygon id="Path-54" fill="#606EC6" points="18.1162867 25.9223535 25.1162867 22.1010779 18.1170531 18 11 22.0507191"></polygon>
        <polygon id="Path-54" fill="#545FA9" points="25.1162867 13.8716344 25.1162867 22.1010779 18.1170531 18 18 10"></polygon>
        <polygon id="Path-31" stroke-opacity="0.195121285" stroke="#FFFFFF" points="25.0180447 22.1996538 25.1730271 13.8038876 18.0121208 10.0365026 10.9727633 13.8570066 11.0796261 21.9734294 18.0294626 25.9971917"></polygon>
        <path d="M18.0192571,26.6254708 C18.2953995,26.6254708 18.5192571,26.4016132 18.5192571,26.1254708 C18.5192571,25.8493284 18.2953995,25.6254708 18.0192571,25.6254708 C17.7431147,25.6254708 17.5192571,25.8493284 17.5192571,26.1254708 C17.5192571,26.4016132 17.7431147,26.6254708 18.0192571,26.6254708 Z" id="Oval" fill="#FFFFFF"></path>
        <path d="M11.0226799,14.4450253 C11.2988222,14.4450253 11.5226799,14.2211676 11.5226799,13.9450253 C11.5226799,13.6688829 11.2988222,13.4450253 11.0226799,13.4450253 C10.7465375,13.4450253 10.5226799,13.6688829 10.5226799,13.9450253 C10.5226799,14.2211676 10.7465375,14.4450253 11.0226799,14.4450253 Z" id="Oval" fill="#FFFFFF"></path>
        <path d="M25.1203082,14.4842751 C25.3964506,14.4842751 25.6203082,14.2604175 25.6203082,13.9842751 C25.6203082,13.7081327 25.3964506,13.4842751 25.1203082,13.4842751 C24.8441658,13.4842751 24.6203082,13.7081327 24.6203082,13.9842751 C24.6203082,14.2604175 24.8441658,14.4842751 25.1203082,14.4842751 Z" id="Oval" fill="#FFFFFF"></path>
        <polyline id="Path-55" stroke="#F9F9F9" opacity="0.151622954" stroke-linecap="round" points="11.0226799 22.0507191 18.1170531 18 25.035356 22.0534419"></polyline>
        <line x1="18" y1="18.0168471" x2="18" y2="10.2681679" id="Path-56" stroke="#F9F9F9" opacity="0.151622954" stroke-linecap="round"></line>
    </g>
</svg>