<?xml version="1.0" encoding="UTF-8"?>
<svg width="36px" height="36px" viewBox="0 0 36 36" version="1.1" xmlns="http://www.w3.org/2000/svg" xmlns:xlink="http://www.w3.org/1999/xlink">
    <title>category_null</title>
    <g id="category_null" stroke="none" stroke-width="1" fill="none" fill-rule="evenodd">
        <path d="M17.9235224,6.500562 C18.7519495,6.500562 19.4235224,7.17213488 19.4235224,8.000562 L19.4226521,18.658562 L28.9333159,24.2611089 C29.6121404,24.660979 29.8382776,25.5354337 29.4384075,26.2142582 C29.4363045,26.2178282 29.434186,26.2213891 29.432052,26.2249406 C29.0216904,26.907897 28.1375393,27.1324367 27.4510332,26.7280416 L17.8716521,21.084562 L8.22505007,26.8652046 C8.22188469,26.8671013 8.21871165,26.8689851 8.21553101,26.870856 L8.2059664,26.8764301 C7.55355294,27.2531011 6.71931509,27.0295678 6.34264401,26.3771543 C5.9580022,25.7109352 6.1787928,24.8593476 6.83868112,24.4639431 L6.83868112,24.4639431 L16.4226521,18.720562 L16.4235224,8.000562 C16.4235224,7.17213488 17.0950953,6.500562 17.9235224,6.500562 Z" id="MXN_BG_ID" fill="#5DA9C8"></path>
        <g id="Group-2" transform="translate(5.500000, 7.000000)">
            <polyline id="Path-25" stroke="#E8E8E8" opacity="0.501464844" stroke-linecap="round" points="1.37164179 18.3086166 11.5798804 12.0711609 11.5195184 0.705815756"></polyline>
            <line x1="24.1201783" y1="18.3349718" x2="13.7699932" y2="12.1557379" id="Path-25" stroke="#E8E8E8" opacity="0.391066778" stroke-linecap="round"></line>
            <path d="M11.2480187,12.0649641 C11.6058992,12.2323657 11.7233541,12.7309098 11.8466683,12.5316038 C11.9699825,12.3322979 11.9187191,11.9224568 11.5744888,11.7340815 C11.2302585,11.5457061 10.8289432,11.6392431 10.8289432,11.8747023 C10.8289432,12.1101614 10.8901382,11.8975625 11.2480187,12.0649641 Z" id="Oval" fill="#FFFFFF"></path>
            <path d="M11.6793782,1.06796786 C11.9555205,1.06796786 12.1793782,0.844110238 12.1793782,0.567967863 C12.1793782,0.291825488 11.9555205,0.067967863 11.6793782,0.067967863 C11.4032358,0.067967863 11.1793782,0.291825488 11.1793782,0.567967863 C11.1793782,0.844110238 11.4032358,1.06796786 11.6793782,1.06796786 Z" id="Oval" fill="#FFFFFF"></path>
            <path d="M1.27866636,18.9405192 C1.55480873,18.9405192 1.77866636,18.7166615 1.77866636,18.4405192 C1.77866636,18.1643768 1.55480873,17.9405192 1.27866636,17.9405192 C1.00252399,17.9405192 0.77866636,18.1643768 0.77866636,18.4405192 C0.77866636,18.7166615 1.00252399,18.9405192 1.27866636,18.9405192 Z" id="Oval" fill="#FFFFFF"></path>
        </g>
        <path d="M17.9235224,6.000562 C18.4758071,6.000562 18.9758071,6.22441963 19.3377359,6.58634844 C19.6996648,6.94827725 19.9235224,7.44827725 19.9235224,8.00060283 L19.9235224,8.00060283 L19.9226755,18.3728109 L29.1870907,23.8302976 C29.6454682,24.1003106 29.9510067,24.5305557 30.0744476,25.0078919 C30.1978885,25.4852281 30.1392318,26.0096555 29.8670084,26.4717485 C29.5881965,26.9358397 29.1528305,27.2424441 28.6728984,27.3665179 C28.1892772,27.4915455 27.6599109,27.4313842 27.1972375,27.1588406 L27.1972375,27.1588406 L17.8738241,21.6661586 L8.47515039,27.2981594 C8.02046874,27.5608104 7.51088367,27.6153604 7.05110542,27.4961539 C6.584518,27.3751821 6.16824516,27.0750867 5.90963131,26.6271543 C5.66650908,26.2060543 5.60195838,25.7302973 5.69297419,25.2881387 C5.78660605,24.8332711 6.04514963,24.4141414 6.44312637,24.1263852 L6.44312637,24.1263852 L15.9226751,18.4374831 L15.9235224,8.000562 C15.9235224,7.44827725 16.14738,6.94827725 16.5093088,6.58634844 C16.8712376,6.22441963 17.3712376,6.000562 17.9235224,6.000562 Z" id="MXN_FG_ID" stroke="#0A0A0A"></path>
    </g>
</svg>