<?xml version="1.0" encoding="UTF-8"?>
<svg width="36px" height="36px" viewBox="0 0 36 36" version="1.1" xmlns="http://www.w3.org/2000/svg" xmlns:xlink="http://www.w3.org/1999/xlink">
    <title>category_spline</title>
    <g id="category_spline" stroke="none" stroke-width="1" fill="none" fill-rule="evenodd">
        <path d="M9,25.7821372 C5.77207209,23.1132104 5.77207209,21.7787469 9,21.7787469 C13.8418919,21.7787469 19.3716819,10 27,10 C32.0855454,10 32.0855454,11.3333333 27,14 C21.3693964,14.3518478 14.4436424,25.7821372 9,25.7821372 Z" id="MXN_BG_ID" fill="#5DA9C8"></path>
        <g id="MXN_0_ID" transform="translate(5.000000, 10.000000)" fill="#FFFFFF" stroke="#000000">
            <path d="M2,11.5 C2.69035594,11.5 3.31535594,11.779822 3.76776695,12.232233 C4.22017797,12.6846441 4.5,13.3096441 4.5,14 C4.5,14.6903559 4.22017797,15.3153559 3.76776695,15.767767 C3.31535594,16.220178 2.69035594,16.5 2,16.5 C1.30964406,16.5 0.684644063,16.220178 0.232233047,15.767767 C-0.220177969,15.3153559 -0.5,14.6903559 -0.5,14 C-0.5,13.3096441 -0.220177969,12.6846441 0.232233047,12.232233 C0.684644063,11.779822 1.30964406,11.5 2,11.5 L2,11.5 Z" id="Oval"></path>
            <path d="M24,-0.5 C24.6903559,-0.5 25.3153559,-0.220177969 25.767767,0.232233047 C26.220178,0.684644063 26.5,1.30964406 26.5,2 C26.5,2.69035594 26.220178,3.31535594 25.767767,3.76776695 C25.3153559,4.22017797 24.6903559,4.5 24,4.5 C23.3096441,4.5 22.6846441,4.22017797 22.232233,3.76776695 C21.779822,3.31535594 21.5,2.69035594 21.5,2 C21.5,1.30964406 21.779822,0.684644063 22.232233,0.232233047 C22.6846441,-0.220177969 23.3096441,-0.5 24,-0.5 Z" id="Oval"></path>
        </g>
        <g id="MXN_FG_ID" transform="translate(5.000000, 10.000000)" stroke="#000000">
            <path d="M4,15.7787469 C10.1186138,16.0132921 15.8777154,4 22,4" id="Path-57" stroke-linecap="round"></path>
            <path d="M4,11.7787469 C8.84189187,11.7787469 14.3716819,7.10542736e-15 22,7.10542736e-15" id="Path-57" stroke-linecap="round"></path>
            <path d="M2,11.5 C2.69035594,11.5 3.31535594,11.779822 3.76776695,12.232233 C4.22017797,12.6846441 4.5,13.3096441 4.5,14 C4.5,14.6903559 4.22017797,15.3153559 3.76776695,15.767767 C3.31535594,16.220178 2.69035594,16.5 2,16.5 C1.30964406,16.5 0.684644063,16.220178 0.232233047,15.767767 C-0.220177969,15.3153559 -0.5,14.6903559 -0.5,14 C-0.5,13.3096441 -0.220177969,12.6846441 0.232233047,12.232233 C0.684644063,11.779822 1.30964406,11.5 2,11.5 L2,11.5 Z" id="Oval"></path>
            <path d="M24,-0.5 C24.6903559,-0.5 25.3153559,-0.220177969 25.767767,0.232233047 C26.220178,0.684644063 26.5,1.30964406 26.5,2 C26.5,2.69035594 26.220178,3.31535594 25.767767,3.76776695 C25.3153559,4.22017797 24.6903559,4.5 24,4.5 C23.3096441,4.5 22.6846441,4.22017797 22.232233,3.76776695 C21.779822,3.31535594 21.5,2.69035594 21.5,2 C21.5,1.30964406 21.779822,0.684644063 22.232233,0.232233047 C22.6846441,-0.220177969 23.3096441,-0.5 24,-0.5 Z" id="Oval"></path>
        </g>
    </g>
</svg>