<?xml version="1.0" encoding="utf-8"?>
<!-- Generator: Adobe Illustrator 24.0.1, SVG Export Plug-In . SVG Version: 6.00 Build 0)  -->
<svg version="1.1" id="Layer_1" xmlns="http://www.w3.org/2000/svg" xmlns:xlink="http://www.w3.org/1999/xlink" x="0px" y="0px"
	 viewBox="0 0 500 500" enable-background="new 0 0 500 500" xml:space="preserve">
<g id="State:EnabledDeactivatedHighlight">
	<g>
		<path fill="none" stroke="#F8FFBF" stroke-width="24" stroke-miterlimit="10" d="M24,467c0,5,4,9,9,9h434c5,0,9-4,9-9V33
			c0-5-4-9-9-9H33c-5,0-9,4-9,9V467z"/>
	</g>
</g>
<g id="State:EnabledActivatedHighlight">
	<g>
		<path fill="none" stroke="#FFFFFF" stroke-width="24" stroke-miterlimit="10" d="M24,467c0,5,4,9,9,9h434c5,0,9-4,9-9V33
			c0-5-4-9-9-9H33c-5,0-9,4-9,9V467z"/>
	</g>
	<polyline fill="none" stroke="#FFFFFF" stroke-width="68" stroke-miterlimit="10" points="135.3,250 245,393 413.9,59.7 	"/>
</g>
<g id="State:EnabledActivatedNoHighlight">
	<g>
		<path fill="none" stroke="#FFFFFF" stroke-width="24" stroke-miterlimit="10" d="M24,467c0,5,4,9,9,9h434c5,0,9-4,9-9V33
			c0-5-4-9-9-9H33c-5,0-9,4-9,9V467z"/>
	</g>
	<polyline fill="none" stroke="#FFFFFF" stroke-width="48" stroke-miterlimit="10" points="135.3,250 245,393 413.9,59.7 	"/>
</g>
<g id="State:EnabledDeactivatedNoHighlight">
	<g>
		<path fill="none" stroke="#FFFFFF" stroke-width="24" stroke-miterlimit="10" d="M24,467c0,5,4,9,9,9h434c5,0,9-4,9-9V33
			c0-5-4-9-9-9H33c-5,0-9,4-9,9V467z"/>
	</g>
</g>
</svg>
