<?xml version="1.0" encoding="utf-8"?>
<!-- Generator: Adobe Illustrator 24.1.2, SVG Export Plug-In . SVG Version: 6.00 Build 0)  -->
<svg version="1.1" id="Layer_1" xmlns="http://www.w3.org/2000/svg" xmlns:xlink="http://www.w3.org/1999/xlink" x="0px" y="0px"
	 viewBox="0 0 500 500" enable-background="new 0 0 500 500" xml:space="preserve">
<g id="State:EnabledActivatedHighlight">
	<path fill="#E6E6E6" d="M458,83v375l-83-83H83c-11.1,0-20.7-4.2-28.8-12.7C46.1,353.9,42,344.1,42,333V83
		c0-11.1,4.1-20.7,12.2-28.8C62.3,46.1,71.9,42,83,42h334c11.1,0,20.7,4.1,28.8,12.2C453.9,62.3,458,71.9,458,83z M375,167v-42H125
		v42H375z M375,229.5v-42H125v42H375z M375,292v-42H125v42H375z"/>
</g>
<g id="State:EnabledActivatedNoHighlight">
	<path fill="#CCCCCC" d="M458,83v375l-83-83H83c-11.1,0-20.7-4.2-28.8-12.7C46.1,353.9,42,344.1,42,333V83
		c0-11.1,4.1-20.7,12.2-28.8C62.3,46.1,71.9,42,83,42h334c11.1,0,20.7,4.1,28.8,12.2C453.9,62.3,458,71.9,458,83z M375,167v-42H125
		v42H375z M375,229.5v-42H125v42H375z M375,292v-42H125v42H375z"/>
</g>
<g id="State:EnabledDeactivatedHighlight">
	<path fill="#999999" d="M417,42c11.1,0,20.7,4.1,28.8,12.2C453.9,62.3,458,71.9,458,83v375l-83-83H83c-11.1,0-20.7-4.2-28.8-12.7
		C46.1,353.9,42,344.1,42,333V83c0-11.1,4.1-20.7,12.2-28.8C62.3,46.1,71.9,42,83,42H417z M375,333l42,42V83H83v250H375z"/>
</g>
<g id="State:EnabledDeactivatedNoHighlight">
	<path fill="#808080" d="M417,42c11.1,0,20.7,4.1,28.8,12.2C453.9,62.3,458,71.9,458,83v375l-83-83H83c-11.1,0-20.7-4.2-28.8-12.7
		C46.1,353.9,42,344.1,42,333V83c0-11.1,4.1-20.7,12.2-28.8C62.3,46.1,71.9,42,83,42H417z M375,333l42,42V83H83v250H375z"/>
</g>
</svg>
