<?xml version="1.0" encoding="utf-8"?>
<!-- Generator: Adobe Illustrator 24.1.2, SVG Export Plug-In . SVG Version: 6.00 Build 0)  -->
<svg version="1.1" id="Layer_1" xmlns="http://www.w3.org/2000/svg" xmlns:xlink="http://www.w3.org/1999/xlink" x="0px" y="0px"
	 viewBox="0 0 500 500" enable-background="new 0 0 500 500" xml:space="preserve">
<g id="State:EnabledActivatedHighlight">
	<path fill="#E6E6E6" d="M208,83l42,42h167c11.1,0,20.7,4.2,28.8,12.7c8.1,8.5,12.2,18.2,12.2,29.3v208c0,11.1-4.1,20.8-12.2,29.3
		c-8.1,8.5-17.7,12.7-28.8,12.7H83c-11.1,0-20.7-4.2-28.8-12.7C46.1,395.8,42,386.1,42,375V125c0-11.1,4.1-20.8,12.2-29.3
		C62.3,87.2,71.9,83,83,83H208z"/>
</g>
<g id="State:EnabledActivatedNoHighlight">
	<path fill="#CCCCCC" d="M208,83l42,42h167c11.1,0,20.7,4.2,28.8,12.7c8.1,8.5,12.2,18.2,12.2,29.3v208c0,11.1-4.1,20.8-12.2,29.3
		c-8.1,8.5-17.7,12.7-28.8,12.7H83c-11.1,0-20.7-4.2-28.8-12.7C46.1,395.8,42,386.1,42,375V125c0-11.1,4.1-20.8,12.2-29.3
		C62.3,87.2,71.9,83,83,83H208z"/>
</g>
<g id="State:EnabledDeactivatedHighlight">
	<path fill="#E6E6E6" d="M208,83l42,42h167c11.1,0,20.7,4.2,28.8,12.7c8.1,8.5,12.2,18.2,12.2,29.3v208c0,11.1-4.1,20.8-12.2,29.3
		c-8.1,8.5-17.7,12.7-28.8,12.7H83c-11.1,0-20.7-4.2-28.8-12.7C46.1,395.8,42,386.1,42,375V125c0-11.1,4.1-20.8,12.2-29.3
		C62.3,87.2,71.9,83,83,83H208z"/>
</g>
<g id="State:EnabledDeactivatedNoHighlight">
	<path fill="#CCCCCC" d="M208,83l42,42h167c11.1,0,20.7,4.2,28.8,12.7c8.1,8.5,12.2,18.2,12.2,29.3v208c0,11.1-4.1,20.8-12.2,29.3
		c-8.1,8.5-17.7,12.7-28.8,12.7H83c-11.1,0-20.7-4.2-28.8-12.7C46.1,395.8,42,386.1,42,375V125c0-11.1,4.1-20.8,12.2-29.3
		C62.3,87.2,71.9,83,83,83H208z"/>
</g>
</svg>
