<?xml version="1.0" encoding="utf-8"?>
<!-- Generator: Adobe Illustrator 24.1.2, SVG Export Plug-In . SVG Version: 6.00 Build 0)  -->
<svg version="1.1" id="Layer_1" xmlns="http://www.w3.org/2000/svg" xmlns:xlink="http://www.w3.org/1999/xlink" x="0px" y="0px"
	 viewBox="0 0 500 500" enable-background="new 0 0 500 500" xml:space="preserve">
<g id="State:EnabledActivatedHighlight">
	<path fill="#E6E6E6" d="M437.5,395.5c0,11.1-4.2,20.8-12.7,29.3c-8.5,8.5-18.2,12.7-29.3,12.7h-291c-11.1,0-20.8-4.2-29.3-12.7
		c-8.5-8.5-12.7-18.2-12.7-29.3v-291c0-11.1,4.2-20.8,12.7-29.3c8.5-8.5,18.2-12.7,29.3-12.7h291c11.1,0,20.8,4.2,29.3,12.7
		c8.5,8.5,12.7,18.2,12.7,29.3V395.5z M176.8,281.2L104.5,375h291l-93.8-125l-72.3,93.8L176.8,281.2z"/>
</g>
<g id="State:EnabledActivatedNoHighlight">
	<path fill="#CCCCCC" d="M437.5,395.5c0,11.1-4.2,20.8-12.7,29.3c-8.5,8.5-18.2,12.7-29.3,12.7h-291c-11.1,0-20.8-4.2-29.3-12.7
		c-8.5-8.5-12.7-18.2-12.7-29.3v-291c0-11.1,4.2-20.8,12.7-29.3c8.5-8.5,18.2-12.7,29.3-12.7h291c11.1,0,20.8,4.2,29.3,12.7
		c8.5,8.5,12.7,18.2,12.7,29.3V395.5z M176.8,281.2L104.5,375h291l-93.8-125l-72.3,93.8L176.8,281.2z"/>
</g>
<g id="State:EnabledDeactivatedHighlight">
	<path fill="#808080" d="M437.5,395.5c0,11.1-4.2,20.8-12.7,29.3c-8.5,8.5-18.2,12.7-29.3,12.7h-291c-11.1,0-20.8-4.2-29.3-12.7
		c-8.5-8.5-12.7-18.2-12.7-29.3v-291c0-11.1,4.2-20.8,12.7-29.3c8.5-8.5,18.2-12.7,29.3-12.7h291c11.1,0,20.8,4.2,29.3,12.7
		c8.5,8.5,12.7,18.2,12.7,29.3V395.5z M176.8,281.2L104.5,375h291l-93.8-125l-72.3,93.8L176.8,281.2z"/>
</g>
<g id="State:EnabledDeactivatedNoHighlight">
	<path fill="#666666" d="M437.5,395.5c0,11.1-4.2,20.8-12.7,29.3c-8.5,8.5-18.2,12.7-29.3,12.7h-291c-11.1,0-20.8-4.2-29.3-12.7
		c-8.5-8.5-12.7-18.2-12.7-29.3v-291c0-11.1,4.2-20.8,12.7-29.3c8.5-8.5,18.2-12.7,29.3-12.7h291c11.1,0,20.8,4.2,29.3,12.7
		c8.5,8.5,12.7,18.2,12.7,29.3V395.5z M176.8,281.2L104.5,375h291l-93.8-125l-72.3,93.8L176.8,281.2z"/>
</g>
</svg>
