<?xml version="1.0" encoding="utf-8"?>
<!-- Generator: Adobe Illustrator 24.0.1, SVG Export Plug-In . SVG Version: 6.00 Build 0)  -->
<svg version="1.1" id="Layer_1" xmlns="http://www.w3.org/2000/svg" xmlns:xlink="http://www.w3.org/1999/xlink" x="0px" y="0px"
	 viewBox="0 0 500 500" enable-background="new 0 0 500 500" xml:space="preserve">
<g id="State:EnabledDeactivatedHighlight">
	<g>
		<path fill="#FFFFFF" d="M250,28c30,0,59.1,5.9,86.4,17.4C362.8,56.6,386.6,72.6,407,93c20.4,20.4,36.4,44.1,47.6,70.6
			C466.1,190.9,472,220,472,250c0,30-5.9,59.1-17.4,86.4c-11.2,26.4-27.2,50.2-47.6,70.6c-20.4,20.4-44.1,36.4-70.6,47.6
			C309.1,466.1,280,472,250,472s-59.1-5.9-86.4-17.4c-26.4-11.2-50.2-27.2-70.6-47.6c-20.4-20.4-36.4-44.1-47.6-70.6
			C33.9,309.1,28,280,28,250c0-30,5.9-59.1,17.4-86.4C56.6,137.2,72.6,113.4,93,93c20.4-20.4,44.1-36.4,70.6-47.6
			C190.9,33.9,220,28,250,28 M250,0C111.9,0,0,111.9,0,250s111.9,250,250,250s250-111.9,250-250S388.1,0,250,0L250,0z"/>
	</g>
</g>
<g id="State:EnabledDeactivatedNoHighlight">
	<g>
		<path fill="#FFFFFF" d="M250,18c31.3,0,61.7,6.1,90.3,18.2C367.9,47.9,392.7,64.6,414,86c21.3,21.3,38,46.1,49.7,73.7
			c12.1,28.6,18.2,59,18.2,90.3s-6.1,61.7-18.2,90.3c-11.7,27.6-28.4,52.4-49.7,73.7c-21.3,21.3-46.1,38-73.7,49.7
			c-28.6,12.1-59,18.2-90.3,18.2s-61.7-6.1-90.3-18.2c-27.6-11.7-52.4-28.4-73.7-49.7c-21.3-21.3-38-46.1-49.7-73.7
			C24.1,311.7,18,281.3,18,250s6.1-61.7,18.2-90.3C47.9,132.1,64.6,107.3,86,86c21.3-21.3,46.1-38,73.7-49.7
			C188.3,24.1,218.7,18,250,18 M250,0C111.9,0,0,111.9,0,250s111.9,250,250,250s250-111.9,250-250S388.1,0,250,0L250,0z"/>
	</g>
</g>
<g id="State:EnabledActivatedNoHighlight">
	<g>
		<circle fill="#FFFFFF" cx="250" cy="250" r="175"/>
	</g>
	<g>
		<path fill="#FFFFFF" d="M250,18c31.3,0,61.7,6.1,90.3,18.2C367.9,47.9,392.7,64.6,414,86c21.3,21.3,38,46.1,49.7,73.7
			c12.1,28.6,18.2,59,18.2,90.3s-6.1,61.7-18.2,90.3c-11.7,27.6-28.4,52.4-49.7,73.7c-21.3,21.3-46.1,38-73.7,49.7
			c-28.6,12.1-59,18.2-90.3,18.2s-61.7-6.1-90.3-18.2c-27.6-11.7-52.4-28.4-73.7-49.7c-21.3-21.3-38-46.1-49.7-73.7
			C24.1,311.7,18,281.3,18,250s6.1-61.7,18.2-90.3C47.9,132.1,64.6,107.3,86,86c21.3-21.3,46.1-38,73.7-49.7
			C188.3,24.1,218.7,18,250,18 M250,0C111.9,0,0,111.9,0,250s111.9,250,250,250s250-111.9,250-250S388.1,0,250,0L250,0z"/>
	</g>
</g>
<g id="State:EnabledActivatedHighlight">
	<g>
		<circle fill="#FFE07F" cx="250" cy="250" r="161"/>
		<path fill="#FFE07F" d="M250,103c39.3,0,76.2,15.3,103.9,43.1C381.7,173.8,397,210.7,397,250s-15.3,76.2-43.1,103.9
			C326.2,381.7,289.3,397,250,397s-76.2-15.3-103.9-43.1S103,289.3,103,250s15.3-76.2,43.1-103.9C173.8,118.3,210.7,103,250,103
			 M250,75c-96.6,0-175,78.4-175,175c0,96.6,78.4,175,175,175c96.6,0,175-78.4,175-175C425,153.4,346.6,75,250,75L250,75z"/>
	</g>
	<g>
		<path fill="#FFFFFF" d="M250,18c31.3,0,61.7,6.1,90.3,18.2C367.9,47.9,392.7,64.6,414,86c21.3,21.3,38,46.1,49.7,73.7
			c12.1,28.6,18.2,59,18.2,90.3s-6.1,61.7-18.2,90.3c-11.7,27.6-28.4,52.4-49.7,73.7c-21.3,21.3-46.1,38-73.7,49.7
			c-28.6,12.1-59,18.2-90.3,18.2s-61.7-6.1-90.3-18.2c-27.6-11.7-52.4-28.4-73.7-49.7c-21.3-21.3-38-46.1-49.7-73.7
			C24.1,311.7,18,281.3,18,250s6.1-61.7,18.2-90.3C47.9,132.1,64.6,107.3,86,86c21.3-21.3,46.1-38,73.7-49.7
			C188.3,24.1,218.7,18,250,18 M250,0C111.9,0,0,111.9,0,250s111.9,250,250,250s250-111.9,250-250S388.1,0,250,0L250,0z"/>
	</g>
</g>
</svg>
