<?xml version="1.0" encoding="utf-8"?>
<!-- Generator: Adobe Illustrator 24.1.2, SVG Export Plug-In . SVG Version: 6.00 Build 0)  -->
<svg version="1.1" id="Layer_1" xmlns="http://www.w3.org/2000/svg" xmlns:xlink="http://www.w3.org/1999/xlink" x="0px" y="0px"
	 viewBox="0 0 500 500" enable-background="new 0 0 500 500" xml:space="preserve">
<g id="State:EnabledActivatedHighlight">
	<path fill="#FFA14D" d="M397,103c-40.7-40.7-89.7-61-147-61c-57.3,0-106.3,20.4-147,61c-40.7,40.7-61,89.7-61,147
		c0,57.3,20.3,106.3,61,147c40.7,40.7,89.7,61,147,61c57.3,0,106.3-20.3,147-61c40.7-40.7,61-89.7,61-147
		C458,192.7,437.7,143.7,397,103z M337.7,336.6c-6.4,10.5-15,19-25.6,25.6c-10.7,6.6-22.9,11.4-36.9,14.4c-13.9,3-28.4,4.5-43.3,4.5
		c-27.5,0-53-4.2-76.4-12.7V306c12.7,7.7,25.3,13.3,38,17.1c12.6,3.7,24.5,5.6,35.8,5.6c13.7,0,24.5-1.9,32.3-5.6
		c7.9-3.7,11.8-9.4,11.8-17.1c0-4.9-1.8-8.9-5.4-12.2c-3.6-3.3-8.2-6.1-13.8-8.5c-5.6-2.4-11.8-4.6-18.4-6.6s-13.1-4.2-19.3-6.6
		c-9.9-3.7-18.7-7.8-26.2-12.1c-7.6-4.3-13.9-9.3-19-15c-5.1-5.7-9-12.3-11.7-19.8c-2.7-7.5-4-16.4-4-26.6c0-14,3.1-26,9.2-36.1
		c6.1-10.1,14.2-18.3,24.4-24.8c10.2-6.4,21.8-11.1,34.9-14.2c13.1-3,26.7-4.5,40.9-4.5c11.1,0,22.3,0.9,33.7,2.6
		c11.4,1.7,22.6,4.2,33.7,7.4v59.6c-9.8-5.7-20.2-10-31.4-12.8c-11.1-2.8-22.1-4.3-32.8-4.3c-5,0-9.8,0.5-14.3,1.3
		c-4.5,0.9-8.4,2.2-11.8,3.9c-3.4,1.7-6.1,3.9-8.1,6.6c-2,2.7-2.9,5.7-2.9,9.2c0,4.6,1.5,8.5,4.4,11.7c2.9,3.3,6.8,6.1,11.5,8.4
		c4.7,2.4,10,4.5,15.7,6.3c5.8,1.9,11.5,3.8,17.2,5.7c10.3,3.6,19.5,7.5,27.8,11.7c8.3,4.2,15.4,9.2,21.4,14.9
		c5.9,5.7,10.5,12.4,13.7,20c3.2,7.7,4.8,16.8,4.8,27.3C347.4,313.5,344.2,326.1,337.7,336.6z"/>
</g>
<g id="State:EnabledActivatedNoHighlight">
	<path fill="#ED872C" d="M397,103c-40.7-40.7-89.7-61-147-61c-57.3,0-106.3,20.4-147,61c-40.7,40.7-61,89.7-61,147
		c0,57.3,20.3,106.3,61,147c40.7,40.7,89.7,61,147,61c57.3,0,106.3-20.3,147-61c40.7-40.7,61-89.7,61-147
		C458,192.7,437.7,143.7,397,103z M337.7,336.6c-6.4,10.5-15,19-25.6,25.6c-10.7,6.6-22.9,11.4-36.9,14.4c-13.9,3-28.4,4.5-43.3,4.5
		c-27.5,0-53-4.2-76.4-12.7V306c12.7,7.7,25.3,13.3,38,17.1c12.6,3.7,24.5,5.6,35.8,5.6c13.7,0,24.5-1.9,32.3-5.6
		c7.9-3.7,11.8-9.4,11.8-17.1c0-4.9-1.8-8.9-5.4-12.2c-3.6-3.3-8.2-6.1-13.8-8.5c-5.6-2.4-11.8-4.6-18.4-6.6s-13.1-4.2-19.3-6.6
		c-9.9-3.7-18.7-7.8-26.2-12.1c-7.6-4.3-13.9-9.3-19-15c-5.1-5.7-9-12.3-11.7-19.8c-2.7-7.5-4-16.4-4-26.6c0-14,3.1-26,9.2-36.1
		c6.1-10.1,14.2-18.3,24.4-24.8c10.2-6.4,21.8-11.1,34.9-14.2c13.1-3,26.7-4.5,40.9-4.5c11.1,0,22.3,0.9,33.7,2.6
		c11.4,1.7,22.6,4.2,33.7,7.4v59.6c-9.8-5.7-20.2-10-31.4-12.8c-11.1-2.8-22.1-4.3-32.8-4.3c-5,0-9.8,0.5-14.3,1.3
		c-4.5,0.9-8.4,2.2-11.8,3.9c-3.4,1.7-6.1,3.9-8.1,6.6c-2,2.7-2.9,5.7-2.9,9.2c0,4.6,1.5,8.5,4.4,11.7c2.9,3.3,6.8,6.1,11.5,8.4
		c4.7,2.4,10,4.5,15.7,6.3c5.8,1.9,11.5,3.8,17.2,5.7c10.3,3.6,19.5,7.5,27.8,11.7c8.3,4.2,15.4,9.2,21.4,14.9
		c5.9,5.7,10.5,12.4,13.7,20c3.2,7.7,4.8,16.8,4.8,27.3C347.4,313.5,344.2,326.1,337.7,336.6z"/>
</g>
<g id="State:EnabledDeactivatedHighlight">
	<path fill="#808080" d="M397,103c-40.7-40.7-89.7-61-147-61c-57.3,0-106.3,20.4-147,61c-40.7,40.7-61,89.7-61,147
		c0,57.3,20.3,106.3,61,147c40.7,40.7,89.7,61,147,61c57.3,0,106.3-20.3,147-61c40.7-40.7,61-89.7,61-147
		C458,192.7,437.7,143.7,397,103z M337.7,336.6c-6.4,10.5-15,19-25.6,25.6c-10.7,6.6-22.9,11.4-36.9,14.4c-13.9,3-28.4,4.5-43.3,4.5
		c-27.5,0-53-4.2-76.4-12.7V306c12.7,7.7,25.3,13.3,38,17.1c12.6,3.7,24.5,5.6,35.8,5.6c13.7,0,24.5-1.9,32.3-5.6
		c7.9-3.7,11.8-9.4,11.8-17.1c0-4.9-1.8-8.9-5.4-12.2c-3.6-3.3-8.2-6.1-13.8-8.5c-5.6-2.4-11.8-4.6-18.4-6.6s-13.1-4.2-19.3-6.6
		c-9.9-3.7-18.7-7.8-26.2-12.1c-7.6-4.3-13.9-9.3-19-15c-5.1-5.7-9-12.3-11.7-19.8c-2.7-7.5-4-16.4-4-26.6c0-14,3.1-26,9.2-36.1
		c6.1-10.1,14.2-18.3,24.4-24.8c10.2-6.4,21.8-11.1,34.9-14.2c13.1-3,26.7-4.5,40.9-4.5c11.1,0,22.3,0.9,33.7,2.6
		c11.4,1.7,22.6,4.2,33.7,7.4v59.6c-9.8-5.7-20.2-10-31.4-12.8c-11.1-2.8-22.1-4.3-32.8-4.3c-5,0-9.8,0.5-14.3,1.3
		c-4.5,0.9-8.4,2.2-11.8,3.9c-3.4,1.7-6.1,3.9-8.1,6.6c-2,2.7-2.9,5.7-2.9,9.2c0,4.6,1.5,8.5,4.4,11.7c2.9,3.3,6.8,6.1,11.5,8.4
		c4.7,2.4,10,4.5,15.7,6.3c5.8,1.9,11.5,3.8,17.2,5.7c10.3,3.6,19.5,7.5,27.8,11.7c8.3,4.2,15.4,9.2,21.4,14.9
		c5.9,5.7,10.5,12.4,13.7,20c3.2,7.7,4.8,16.8,4.8,27.3C347.4,313.5,344.2,326.1,337.7,336.6z"/>
</g>
<g id="State:EnabledDeactivatedNoHighlight">
	<path fill="#666666" d="M397,103c-40.7-40.7-89.7-61-147-61c-57.3,0-106.3,20.4-147,61c-40.7,40.7-61,89.7-61,147
		c0,57.3,20.3,106.3,61,147c40.7,40.7,89.7,61,147,61c57.3,0,106.3-20.3,147-61c40.7-40.7,61-89.7,61-147
		C458,192.7,437.7,143.7,397,103z M337.7,336.6c-6.4,10.5-15,19-25.6,25.6c-10.7,6.6-22.9,11.4-36.9,14.4c-13.9,3-28.4,4.5-43.3,4.5
		c-27.5,0-53-4.2-76.4-12.7V306c12.7,7.7,25.3,13.3,38,17.1c12.6,3.7,24.5,5.6,35.8,5.6c13.7,0,24.5-1.9,32.3-5.6
		c7.9-3.7,11.8-9.4,11.8-17.1c0-4.9-1.8-8.9-5.4-12.2c-3.6-3.3-8.2-6.1-13.8-8.5c-5.6-2.4-11.8-4.6-18.4-6.6s-13.1-4.2-19.3-6.6
		c-9.9-3.7-18.7-7.8-26.2-12.1c-7.6-4.3-13.9-9.3-19-15c-5.1-5.7-9-12.3-11.7-19.8c-2.7-7.5-4-16.4-4-26.6c0-14,3.1-26,9.2-36.1
		c6.1-10.1,14.2-18.3,24.4-24.8c10.2-6.4,21.8-11.1,34.9-14.2c13.1-3,26.7-4.5,40.9-4.5c11.1,0,22.3,0.9,33.7,2.6
		c11.4,1.7,22.6,4.2,33.7,7.4v59.6c-9.8-5.7-20.2-10-31.4-12.8c-11.1-2.8-22.1-4.3-32.8-4.3c-5,0-9.8,0.5-14.3,1.3
		c-4.5,0.9-8.4,2.2-11.8,3.9c-3.4,1.7-6.1,3.9-8.1,6.6c-2,2.7-2.9,5.7-2.9,9.2c0,4.6,1.5,8.5,4.4,11.7c2.9,3.3,6.8,6.1,11.5,8.4
		c4.7,2.4,10,4.5,15.7,6.3c5.8,1.9,11.5,3.8,17.2,5.7c10.3,3.6,19.5,7.5,27.8,11.7c8.3,4.2,15.4,9.2,21.4,14.9
		c5.9,5.7,10.5,12.4,13.7,20c3.2,7.7,4.8,16.8,4.8,27.3C347.4,313.5,344.2,326.1,337.7,336.6z"/>
</g>
</svg>
