<?xml version="1.0" encoding="UTF-8" standalone="no"?>
<svg
   xmlns:dc="http://purl.org/dc/elements/1.1/"
   xmlns:cc="http://creativecommons.org/ns#"
   xmlns:rdf="http://www.w3.org/1999/02/22-rdf-syntax-ns#"
   xmlns:svg="http://www.w3.org/2000/svg"
   xmlns="http://www.w3.org/2000/svg"
   viewBox="0 0 206.61333 98.720001"
   height="98.720001"
   width="206.61333"
   xml:space="preserve"
   id="svg2"
   version="1.1"><metadata
     id="metadata8"><rdf:RDF><cc:Work
         rdf:about=""><dc:format>image/svg+xml</dc:format><dc:type
           rdf:resource="http://purl.org/dc/dcmitype/StillImage" /></cc:Work></rdf:RDF></metadata><defs
     id="defs6" /><g
     transform="matrix(1.3333333,0,0,-1.3333333,0,98.72)"
     id="g10"><g
       transform="scale(0.1)"
       id="g12"><path
         id="path14"
         style="fill:#040606;fill-opacity:1;fill-rule:nonzero;stroke:none"
         d="m 222.234,222.234 60.075,0.934 40.058,156.422 18.024,-84.094 h 54.527 l 31.414,84.094 6.469,-83.625 54.527,-0.469 -15.711,220.863 H 419.398 L 372.27,389.301 345.016,516.359 H 295.113 L 222.234,222.234 v 0 0" /><path
         id="path16"
         style="fill:#040606;fill-opacity:1;fill-rule:nonzero;stroke:none"
         d="M 760.395,518.211 H 696.172 L 765.02,409.164 680.926,295.965 h 63.301 l 49.441,66.539 41.586,-66.539 h 66.07 l -72.539,113.199 79.934,109.047 H 843.57 l -43.898,-62.379 -39.277,62.379 v 0 0" /><path
         id="path18"
         style="fill:#040606;fill-opacity:1;fill-rule:nonzero;stroke:none"
         d="m 1123.11,295.965 h 59.14 l 12.94,111.355 52.21,-111.355 h 49.9 l 30.04,282.269 h -59.14 l -18.48,-167.222 -48.98,105.816 h -52.68 l -24.95,-220.863 v 0 0" /><path
         id="path20"
         style="fill:#040606;fill-opacity:1;fill-rule:nonzero;stroke:none"
         d="m 883.305,409.859 c 0,65.075 52.75,117.825 117.825,117.825 65.07,0 117.82,-52.75 117.82,-117.825 0,-65.078 -52.75,-117.824 -117.82,-117.824 -65.075,0 -117.825,52.746 -117.825,117.824 v 0 z m 53.019,0 c 0,-35.793 29.016,-64.8 64.806,-64.8 35.78,0 64.8,29.007 64.8,64.8 0,35.793 -29.02,64.801 -64.8,64.801 -35.79,0 -64.806,-29.008 -64.806,-64.801 v 0 0" /><path
         id="path22"
         style="fill:#040606;fill-opacity:1;fill-rule:nonzero;stroke:none"
         d="m 498.871,287.645 47.594,244.886 58.68,16.637 106.273,-189.441 -40.656,-53.137 -27.266,55.445 -79.008,-24.027 -6.929,-36.035 -58.688,-14.328 v 0 z m 73.934,93.335 52.672,17.098 -36.036,74.391 -16.636,-91.489 v 0 0" /><path
         id="path24"
         style="fill:#040606;fill-opacity:1;fill-rule:nonzero;stroke:none"
         d="m 520.82,240.605 h 14.563 l -4.485,11.895 c -1.367,3.613 -2.382,6.582 -3.046,8.906 -0.547,-2.754 -1.317,-5.488 -2.317,-8.203 z m -12.39,-17.636 16.492,42.949 h 6.125 l 17.574,-42.949 h -6.473 l -5.007,13.008 H 519.18 l -4.715,-13.008 h -6.035" /><path
         id="path26"
         style="fill:#040606;fill-opacity:1;fill-rule:nonzero;stroke:none"
         d="m 566.465,222.969 v 42.949 h 5.832 l 22.558,-33.723 v 33.723 h 5.45 v -42.949 h -5.832 l -22.559,33.75 v -33.75 h -5.449" /><path
         id="path28"
         style="fill:#040606;fill-opacity:1;fill-rule:nonzero;stroke:none"
         d="m 609.973,222.969 v 42.949 h 31.054 v -5.07 h -25.371 v -13.153 h 23.758 v -5.039 h -23.758 v -14.621 h 26.367 v -5.066 h -32.05" /><path
         id="path30"
         style="fill:#040606;fill-opacity:1;fill-rule:nonzero;stroke:none"
         d="m 649.699,222.969 v 42.949 h 8.555 l 10.164,-30.41 c 0.937,-2.832 1.621,-4.953 2.051,-6.36 0.488,1.563 1.25,3.86 2.285,6.887 l 10.281,29.883 h 7.649 v -42.949 h -5.481 v 35.945 l -12.476,-35.945 h -5.129 l -12.422,36.562 v -36.562 h -5.477" /><path
         id="path32"
         style="fill:#040606;fill-opacity:1;fill-rule:nonzero;stroke:none"
         d="m 699.973,222.969 v 42.949 h 31.054 v -5.07 h -25.371 v -13.153 h 23.758 v -5.039 h -23.758 v -14.621 h 26.367 v -5.066 h -32.05" /><path
         id="path34"
         style="fill:#040606;fill-opacity:1;fill-rule:nonzero;stroke:none"
         d="m 750.801,222.969 v 37.879 h -14.149 v 5.07 h 34.043 v -5.07 h -14.211 v -37.879 h -5.683" /><path
         id="path36"
         style="fill:#040606;fill-opacity:1;fill-rule:nonzero;stroke:none"
         d="m 774.59,236.766 5.363,0.468 c 0.25,-2.148 0.844,-3.914 1.77,-5.281 0.929,-1.387 2.371,-2.5 4.324,-3.34 1.949,-0.859 4.148,-1.281 6.59,-1.281 2.168,0 4.082,0.324 5.742,0.969 1.66,0.644 2.894,1.523 3.707,2.656 0.809,1.113 1.215,2.344 1.215,3.672 0,1.348 -0.391,2.519 -1.172,3.535 -0.781,0.996 -2.07,1.844 -3.867,2.527 -1.153,0.45 -3.699,1.145 -7.645,2.102 -3.945,0.937 -6.711,1.836 -8.293,2.676 -2.051,1.074 -3.578,2.402 -4.586,4.004 -1.004,1.582 -1.508,3.367 -1.508,5.34 0,2.167 0.618,4.191 1.848,6.085 1.231,1.875 3.027,3.309 5.391,4.286 2.359,0.976 4.988,1.464 7.879,1.464 3.183,0 5.992,-0.515 8.422,-1.531 2.433,-1.035 4.304,-2.539 5.613,-4.531 1.308,-1.992 2.012,-4.25 2.109,-6.77 l -5.449,-0.41 c -0.297,2.715 -1.285,4.766 -2.977,6.153 -1.687,1.386 -4.183,2.082 -7.484,2.082 -3.437,0 -5.941,-0.625 -7.516,-1.895 -1.57,-1.25 -2.355,-2.773 -2.355,-4.551 0,-1.543 0.555,-2.812 1.668,-3.808 1.094,-0.996 3.949,-2.024 8.57,-3.067 4.617,-1.047 7.789,-1.953 9.504,-2.734 2.5,-1.152 4.348,-2.617 5.539,-4.375 1.192,-1.777 1.789,-3.809 1.789,-6.113 0,-2.285 -0.656,-4.434 -1.965,-6.465 -1.308,-2.012 -3.187,-3.594 -5.64,-4.707 -2.449,-1.125 -5.207,-1.692 -8.274,-1.692 -3.886,0 -7.144,0.567 -9.773,1.7 -2.625,1.132 -4.688,2.832 -6.18,5.109 -1.496,2.273 -2.281,4.852 -2.359,7.723" /><path
         id="path38"
         style="fill:#040606;fill-opacity:1;fill-rule:nonzero;stroke:none"
         d="m 847.188,238.027 5.683,-1.437 c -1.191,-4.668 -3.336,-8.231 -6.43,-10.672 -3.097,-2.461 -6.878,-3.684 -11.351,-3.684 -4.629,0 -8.395,0.938 -11.297,2.825 -2.898,1.882 -5.105,4.617 -6.621,8.191 -1.512,3.574 -2.27,7.414 -2.27,11.516 0,4.472 0.856,8.367 2.563,11.699 1.711,3.328 4.14,5.859 7.297,7.598 3.152,1.718 6.625,2.585 10.414,2.585 4.297,0 7.91,-1.093 10.84,-3.281 2.929,-2.187 4.972,-5.262 6.125,-9.226 l -5.598,-1.321 c -0.996,3.125 -2.441,5.403 -4.336,6.828 -1.894,1.426 -4.277,2.137 -7.148,2.137 -3.301,0 -6.059,-0.789 -8.278,-2.371 -2.215,-1.582 -3.773,-3.711 -4.672,-6.367 -0.898,-2.676 -1.347,-5.422 -1.347,-8.254 0,-3.652 0.531,-6.844 1.597,-9.559 1.063,-2.734 2.719,-4.765 4.965,-6.113 2.246,-1.348 4.68,-2.023 7.297,-2.023 3.184,0 5.875,0.918 8.082,2.754 2.207,1.836 3.703,4.562 4.485,8.175" /><path
         id="path40"
         style="fill:#040606;fill-opacity:1;fill-rule:nonzero;stroke:none"
         d="m 860.051,222.969 v 42.949 h 5.683 v -17.637 h 22.325 v 17.637 h 5.683 v -42.949 h -5.683 v 20.242 h -22.325 v -20.242 h -5.683" /><path
         id="path42"
         style="fill:#040606;fill-opacity:1;fill-rule:nonzero;stroke:none"
         d="m 903.32,222.969 v 42.949 h 31.055 v -5.07 h -25.371 v -13.153 h 23.762 v -5.039 h -23.762 v -14.621 h 26.367 v -5.066 H 903.32" /><path
         id="path44"
         style="fill:#040606;fill-opacity:1;fill-rule:nonzero;stroke:none"
         d="m 942.988,222.969 v 42.949 h 5.684 V 244.617 L 970,265.918 h 7.703 l -18.015,-17.402 18.808,-25.547 h -7.5 l -15.293,21.738 -7.031,-6.855 v -14.883 h -5.684" /><path
         id="path46"
         style="fill:#040606;fill-opacity:1;fill-rule:nonzero;stroke:none"
         d="m 1030.56,238.027 5.68,-1.437 c -1.19,-4.668 -3.33,-8.231 -6.43,-10.672 -3.1,-2.461 -6.88,-3.684 -11.35,-3.684 -4.63,0 -8.4,0.938 -11.3,2.825 -2.9,1.882 -5.1,4.617 -6.62,8.191 -1.513,3.574 -2.267,7.414 -2.267,11.516 0,4.472 0.852,8.367 2.567,11.699 1.7,3.328 4.14,5.859 7.29,7.598 3.15,1.718 6.63,2.585 10.42,2.585 4.29,0 7.91,-1.093 10.84,-3.281 2.92,-2.187 4.97,-5.262 6.12,-9.226 l -5.6,-1.321 c -0.99,3.125 -2.44,5.403 -4.33,6.828 -1.9,1.426 -4.28,2.137 -7.15,2.137 -3.3,0 -6.06,-0.789 -8.28,-2.371 -2.22,-1.582 -3.77,-3.711 -4.67,-6.367 -0.9,-2.676 -1.35,-5.422 -1.35,-8.254 0,-3.652 0.53,-6.844 1.6,-9.559 1.06,-2.734 2.72,-4.765 4.96,-6.113 2.25,-1.348 4.68,-2.023 7.3,-2.023 3.18,0 5.88,0.918 8.08,2.754 2.21,1.836 3.71,4.562 4.49,8.175" /><path
         id="path48"
         style="fill:#040606;fill-opacity:1;fill-rule:nonzero;stroke:none"
         d="m 1047.37,243.797 c 0,-5.176 1.4,-9.258 4.18,-12.234 2.78,-2.981 6.27,-4.465 10.47,-4.465 4.28,0 7.8,1.504 10.56,4.511 2.77,3.008 4.15,7.278 4.15,12.805 0,3.496 -0.59,6.543 -1.77,9.16 -1.19,2.598 -2.91,4.629 -5.19,6.055 -2.27,1.445 -4.83,2.156 -7.66,2.156 -4.02,0 -7.49,-1.387 -10.39,-4.148 -2.9,-2.766 -4.35,-7.375 -4.35,-13.84 z m -5.86,0.09 c 0,7.129 1.92,12.703 5.75,16.738 3.82,4.031 8.77,6.055 14.82,6.055 3.97,0 7.54,-0.95 10.72,-2.844 3.19,-1.895 5.61,-4.539 7.28,-7.918 1.67,-3.398 2.51,-7.238 2.51,-11.535 0,-4.356 -0.88,-8.25 -2.64,-11.688 -1.76,-3.437 -4.25,-6.047 -7.47,-7.812 -3.22,-1.77 -6.7,-2.649 -10.43,-2.649 -4.04,0 -7.66,0.977 -10.84,2.93 -3.18,1.953 -5.59,4.621 -7.24,8 -1.64,3.379 -2.46,6.953 -2.46,10.723" /><path
         id="path50"
         style="fill:#040606;fill-opacity:1;fill-rule:nonzero;stroke:none"
         d="m 1089.74,222.969 v 42.949 h 8.55 l 10.17,-30.41 c 0.93,-2.832 1.62,-4.953 2.05,-6.36 0.49,1.563 1.25,3.86 2.28,6.887 l 10.29,29.883 h 7.64 v -42.949 h -5.48 v 35.945 l -12.48,-35.945 h -5.12 l -12.42,36.562 v -36.562 h -5.48" /><path
         id="path52"
         style="fill:#040606;fill-opacity:1;fill-rule:nonzero;stroke:none"
         d="m 1145.58,245.496 h 11.1 c 3.67,0 6.28,0.684 7.82,2.051 1.55,1.367 2.32,3.293 2.32,5.773 0,1.797 -0.46,3.328 -1.37,4.61 -0.9,1.277 -2.1,2.129 -3.58,2.539 -0.96,0.254 -2.73,0.379 -5.31,0.379 h -10.98 z m -5.69,-22.527 v 42.949 h 16.2 c 2.86,0 5.03,-0.137 6.54,-0.41 2.11,-0.352 3.87,-1.028 5.3,-2.012 1.43,-0.988 2.57,-2.363 3.44,-4.141 0.87,-1.777 1.31,-3.73 1.31,-5.859 0,-3.652 -1.17,-6.75 -3.49,-9.277 -2.32,-2.531 -6.52,-3.789 -12.6,-3.789 h -11.01 v -17.461 h -5.69" /><path
         id="path54"
         style="fill:#040606;fill-opacity:1;fill-rule:nonzero;stroke:none"
         d="m 1183.14,240.605 h 14.56 l -4.49,11.895 c -1.36,3.613 -2.38,6.582 -3.04,8.906 -0.55,-2.754 -1.32,-5.488 -2.32,-8.203 z m -12.4,-17.636 16.5,42.949 h 6.12 l 17.58,-42.949 h -6.48 l -5.01,13.008 h -17.96 l -4.71,-13.008 h -6.04" /><path
         id="path56"
         style="fill:#040606;fill-opacity:1;fill-rule:nonzero;stroke:none"
         d="m 1215.42,222.969 v 42.949 h 5.83 l 22.56,-33.723 v 33.723 h 5.45 v -42.949 h -5.83 l -22.56,33.75 v -33.75 h -5.45" /><path
         id="path58"
         style="fill:#040606;fill-opacity:1;fill-rule:nonzero;stroke:none"
         d="m 1270.91,222.969 v 18.191 l -16.55,24.758 h 6.91 l 8.47,-12.949 c 1.56,-2.422 3.01,-4.844 4.36,-7.266 1.29,2.246 2.85,4.774 4.69,7.586 l 8.32,12.629 h 6.62 l -17.14,-24.758 v -18.191 h -5.68" /></g></g></svg>