<?xml version="1.0" encoding="utf-8"?>
<!-- Generator: Adobe Illustrator 24.0.3, SVG Export Plug-In . SVG Version: 6.00 Build 0)  -->
<svg version="1.1" id="Layer_1" xmlns="http://www.w3.org/2000/svg" xmlns:xlink="http://www.w3.org/1999/xlink" x="0px" y="0px"
	 viewBox="0 0 23.8 23.8" style="enable-background:new 0 0 23.8 23.8;" xml:space="preserve">
<style type="text/css">
	.st0{fill:none;stroke:#F7941E;stroke-miterlimit:10;}
	.st1{fill:none;stroke:#F7941E;stroke-linecap:round;stroke-linejoin:round;}
	.st2{fill:none;stroke:#808285;stroke-miterlimit:10;}
	.st3{fill:none;stroke:#808285;stroke-linecap:round;stroke-linejoin:round;}
	.st4{fill:#F7941E;}
	.st5{fill:#808285;}
	.st6{fill:#808285;stroke:#808285;stroke-width:0.15;stroke-miterlimit:10;}
</style>
<circle class="st1" cx="11.9" cy="11.9" r="11.4"/>
<path class="st4" d="M12.3,12.8h-1.1c-0.4,0-0.8-0.2-1-0.5c-0.4-0.5-0.6-1.3-0.7-2.6C9.4,8.7,9.6,8,10,7.5c0.5-0.6,1.3-0.6,1.8-0.6
	c0.5,0,1.3,0,1.8,0.6C14,8,14.2,8.7,14.1,9.7c-0.1,1.2-0.3,2.1-0.7,2.6C13.1,12.6,12.7,12.8,12.3,12.8z M11.8,7.6
	c-0.4,0-0.9,0-1.3,0.4c-0.3,0.3-0.4,0.9-0.3,1.6c0.1,1.4,0.4,2,0.6,2.2c0.1,0.1,0.3,0.2,0.5,0.2h1.1c0.2,0,0.4-0.1,0.5-0.2
	c0.2-0.3,0.4-0.9,0.6-2.2c0.1-0.8,0-1.3-0.3-1.6C12.7,7.6,12.2,7.6,11.8,7.6z"/>
<path class="st4" d="M17,5.1c-0.5-0.6-1.3-0.6-1.8-0.6c-0.7,0-2,0-2.3,1.7l0.7,0.1c0.2-1,0.8-1.1,1.6-1.1c0.4,0,0.9,0,1.3,0.4
	c0.3,0.3,0.4,0.9,0.3,1.6c-0.1,1.4-0.4,2-0.6,2.2c-0.1,0.1-0.3,0.2-0.5,0.2h-1.1v0.7h1.1c0.4,0,0.8-0.2,1-0.5
	c0.4-0.5,0.6-1.3,0.7-2.6C17.6,6.3,17.4,5.6,17,5.1z"/>
<path class="st4" d="M9.1,10.3C9,10.1,8.9,9.9,8.9,9.7c0,0,0,0-0.1,0H7.8c-0.2,0-0.4-0.1-0.5-0.2C7.1,9.2,6.9,8.6,6.7,7.2
	c-0.1-0.8,0-1.3,0.3-1.6c0.3-0.4,0.9-0.4,1.3-0.4c0.4,0,0.9,0,1.3,0.4C9.8,5.7,9.8,6,9.9,6.3c0.2-0.1,0.5-0.1,0.7-0.1
	c-0.1-0.5-0.2-0.8-0.5-1.1C9.6,4.5,8.8,4.5,8.3,4.5c-0.5,0-1.3,0-1.8,0.6C6.1,5.6,6,6.3,6.1,7.3c0.1,1.2,0.3,2.1,0.7,2.6
	c0.2,0.3,0.6,0.5,1,0.5h1.1C8.9,10.4,9,10.3,9.1,10.3z"/>
<path class="st4" d="M11.8,19.2c-1.3,0-4.5-0.6-4.6-1.4c-0.1-0.5,0.5-4.5,0.9-5.1c0.6-0.8,1.5-1,1.6-1.1l0.2,0.7
	c0,0-0.8,0.2-1.2,0.8c-0.3,0.4-0.8,4.1-0.8,4.5c0.2,0.2,2.3,0.9,3.9,0.9c1.4,0,3.6-0.6,3.9-0.9c0-0.6-0.5-4.1-0.8-4.5
	c-0.4-0.6-1.2-0.8-1.2-0.8l0.2-0.7c0,0,1,0.3,1.6,1.1c0.5,0.6,1,4.6,0.9,5.1C16.3,18.6,12.9,19.2,11.8,19.2z"/>
<path class="st4" d="M19.1,10.4c-0.6-0.8-1.5-1-1.6-1.1L17.4,10c0,0,0.8,0.2,1.2,0.8c0.3,0.4,0.8,3.9,0.8,4.5
	c-0.2,0.2-1.1,0.5-2,0.7c0,0.3,0,0.5,0.1,0.7c1.3-0.3,2.6-0.7,2.7-1.2C20.1,15,19.6,11,19.1,10.4z"/>
<path class="st4" d="M4.4,15.4c-0.1-0.4,0.5-4.1,0.8-4.5C5.6,10.3,6.4,10,6.4,10L6.2,9.4c0,0-1,0.3-1.6,1.1c-0.5,0.6-1,4.6-0.9,5.1
	C3.8,16,5,16.4,6.2,16.7c0-0.2,0-0.4,0.1-0.7C5.3,15.8,4.5,15.5,4.4,15.4z"/>
</svg>
