<?xml version="1.0" encoding="utf-8"?>
<!-- Generator: Adobe Illustrator 24.1.2, SVG Export Plug-In . SVG Version: 6.00 Build 0)  -->
<svg version="1.1" id="Layer_1" xmlns="http://www.w3.org/2000/svg" xmlns:xlink="http://www.w3.org/1999/xlink" x="0px" y="0px"
	 viewBox="0 0 500 500" enable-background="new 0 0 500 500" xml:space="preserve">
<g id="State:EnabledDeactivatedHighlight">
	<path fill="#E6E6E6" d="M437.5,166.7v-57.2c0-11.1-4.3-20.7-12.7-29.2c-8.4-8.4-18.2-12.7-29.2-12.7h-290
		c-11.1,0-20.7,4.3-29.2,12.7s-12.7,18.2-12.7,29.2v57.2H437.5z"/>
	<path fill="#808080" d="M63.8,332.4v58.1c0,11.1,4.2,20.7,12.7,29.2c8.4,8.4,18.1,12.7,29.2,12.7h290c11.1,0,20.7-4.3,29.2-12.7
		c8.4-8.4,12.7-18.1,12.7-29.2v-58.1H63.8z"/>
	<rect x="63.8" y="202" fill="#808080" width="373.7" height="95.1"/>
</g>
<g id="State:EnabledDeactivatedNoHighlight">
	<path fill="#CCCCCC" d="M437.5,166.7v-57.2c0-11.1-4.3-20.7-12.7-29.2c-8.4-8.4-18.2-12.7-29.2-12.7h-290
		c-11.1,0-20.7,4.3-29.2,12.7s-12.7,18.2-12.7,29.2v57.2H437.5z"/>
	<path fill="#666666" d="M63.8,332.4v58.1c0,11.1,4.2,20.7,12.7,29.2c8.4,8.4,18.1,12.7,29.2,12.7h290c11.1,0,20.7-4.3,29.2-12.7
		c8.4-8.4,12.7-18.1,12.7-29.2v-58.1H63.8z"/>
	<rect x="63.8" y="202" fill="#666666" width="373.7" height="95.1"/>
</g>
</svg>
