<?xml version="1.0" encoding="UTF-8"?>
<svg width="36px" height="36px" viewBox="0 0 36 36" version="1.1" xmlns="http://www.w3.org/2000/svg" xmlns:xlink="http://www.w3.org/1999/xlink">
    <title>category_effector</title>
    <defs>
        <linearGradient x1="50%" y1="29.7107339%" x2="23.064551%" y2="81.5276523%" id="linearGradient-1">
            <stop stop-color="#000000" stop-opacity="0" offset="0%"></stop>
            <stop stop-color="#000000" offset="100%"></stop>
        </linearGradient>
        <path d="M13.7018288,0 L27.1733351,7.5 C22.261038,9.29778836 18.7448257,11.9671924 16.6246982,15.508212 C14.5045707,19.0492317 13.6681009,23.7221013 14.1152889,29.5268209 L0.23032256,22.5 C-0.454613973,16.875647 0.38810506,12.0839803 2.75847966,8.125 C5.12885426,4.16601966 8.77663732,1.45768633 13.7018288,0 Z" id="path-2"></path>
        <filter x="-11.5%" y="-10.6%" width="123.7%" height="121.2%" filterUnits="objectBoundingBox" id="filter-4">
            <feGaussianBlur stdDeviation="1" in="SourceGraphic"></feGaussianBlur>
        </filter>
    </defs>
    <g id="category_effector" stroke="none" stroke-width="1" fill="none" fill-rule="evenodd">
        <path d="M18.1101887,3 L30.4888146,10.2029974 C30.6574435,10.1343034 30.8278387,10.0666376 31,10 L31,10 L30.9782773,10.488 L31,10.5 L30.9772773,10.509 L30.6357237,18.3055556 C28.3885083,18.7458127 26.800108,19.5450833 25.8705228,20.7033676 L25.7292211,20.8892381 C24.8237093,22.1482645 24.3709533,24.9074074 24.3709533,29.1666667 L24.3709533,29.1666667 L18.1100501,32.9979872 C18.1100963,32.9986581 18.1101425,32.999329 18.1101887,33 L18.1072773,32.999 C18.1061378,32.9993291 18.1060926,32.9986583 18.1060475,32.9979875 L5.22037731,25.5 C4.5650161,19.875647 5.37134682,15.0839803 7.63936947,11.125 C9.90739212,7.16601966 13.3976652,4.45768633 18.1101887,3 Z" id="MXN_BG_ID" fill="#606EC6"></path>
        <g id="MXN_0_ID" transform="translate(3.234277, 3.000000)">
            <path d="M27.8735062,15.6334097 L28.1240739,7.4354716 C23.2172971,9.06248525 19.6712563,11.6858466 17.4859516,15.3055556 C15.3006469,18.9252645 14.4320209,23.8234127 14.8800736,30 L21.6267493,26.1666667 C21.5732705,22.5730011 21.9063562,20.0759306 22.6260065,18.6754552 C23.3456567,17.2749797 25.0948233,16.2609645 27.8735062,15.6334097 Z" id="Polygon" fill-opacity="0.183320586" fill="#000000"></path>
            <g transform="translate(0.765723, 0.000000)">
                <mask id="mask-3" fill="white">
                    <use xlink:href="#path-2"></use>
                </mask>
                <use id="Mask" fill="url(#linearGradient-1)" opacity="0.203822545" xlink:href="#path-2"></use>
                <path d="M13.7018288,0 L27.1733351,7.5 C21.9021371,9.26555453 18.2064743,11.9188416 16.0863468,15.4598613 C13.9662193,19.0008809 13.2947713,23.6546477 14.0720026,29.4211615 L0.23032256,22.5 C-0.454613973,16.875647 0.38810506,12.0839803 2.75847966,8.125 C5.12885426,4.16601966 8.77663732,1.45768633 13.7018288,0 Z" id="Polygon" stroke="#FFFFFF" stroke-width="0.25" filter="url(#filter-4)" mask="url(#mask-3)"></path>
            </g>
            <path d="M14.8380661,29.6253226 C14.2881273,23.2032449 15.2951858,18.1972075 17.8592416,14.6072105 C20.4232974,11.0172136 23.542577,8.72844127 27.2170805,7.74089367" id="Path" stroke="#FFFFFF" opacity="0.191127232"></path>
        </g>
        <path d="M18.1101887,3 L30.999,10.499 L31,10.5 L30.6357237,18.3055556 C28.2702338,18.7689841 26.6347329,19.6302116 25.7292211,20.8892381 C24.8237093,22.1482645 24.3709533,24.9074074 24.3709533,29.1666667 L24.3709533,29.1666667 L18.0795255,32.8287762 C18.0799702,32.8354864 18.0804165,32.8421982 18.0808644,32.8489114 L18.062,32.838 C18.0616241,32.8382262 18.0616028,32.8378904 18.0615814,32.8375546 L5.22037731,25.5 C4.5650161,19.875647 5.37134682,15.0839803 7.63936947,11.125 C9.90739212,7.16601966 13.3976652,4.45768633 18.1101887,3 Z" id="MXN_FG_ID" stroke="#0A0A0A"></path>
    </g>
</svg>