<?xml version="1.0" encoding="UTF-8"?>
<svg width="36px" height="36px" viewBox="0 0 36 36" version="1.1" xmlns="http://www.w3.org/2000/svg" xmlns:xlink="http://www.w3.org/1999/xlink">
    <title>category_field</title>
    <g id="category_field" stroke="none" stroke-width="1" fill="none" fill-rule="evenodd">
        <g id="MXN_BG_ID" transform="translate(-14.000000, -8.000000)" fill="#9761A6">
            <g id="Combined-Shape">
                <path d="M31.7506028,10.1269652 L31.8354343,25.9674063 L18,33.7804386 C18.0357846,23.2882374 18.0536768,18.0421368 18.0536768,18.0421368 C27.1849608,12.7653557 31.7506028,10.1269652 31.7506028,10.1269652 Z M29.6527079,14.2909208 C29.6527079,14.2909208 26.5410912,16.0331741 20.3178579,19.5176807 C20.3178579,19.5176807 20.2975259,22.8861521 20.2568619,29.623095 L20.2568619,29.623095 L29.7559266,24.241237 C29.6899228,17.8784498 29.6555739,14.5672034 29.6528798,14.3074978 Z"></path>
                <path d="M32.2459843,9.26321181 L32.3369998,26.2583831 L17.49707,34.6386658 L17.55466,17.7530258 L32.2459843,9.26321181 Z M29.1615025,15.141321 C27.928901,15.837314 25.1469683,17.41547 20.8154768,19.9127574 L20.8154768,19.9127574 L20.762067,28.762189 L29.2528948,23.9515648 Z" stroke="#0A0A0A"></path>
            </g>
            <g id="Combined-Shape" transform="translate(14.000000, 8.000000)">
                <path d="M31.7506028,10.1269652 L31.8354343,25.9674063 L18,33.7804386 C18.0357846,23.2882374 18.0536768,18.0421368 18.0536768,18.0421368 C27.1849608,12.7653557 31.7506028,10.1269652 31.7506028,10.1269652 Z M29.6527079,14.2909208 C29.6527079,14.2909208 26.5410912,16.0331741 20.3178579,19.5176807 C20.3178579,19.5176807 20.2975259,22.8861521 20.2568619,29.623095 L20.2568619,29.623095 L29.7559266,24.241237 C29.6899228,17.8784498 29.6555739,14.5672034 29.6528798,14.3074978 Z"></path>
                <path d="M32.2459843,9.26321181 L32.3369998,26.2583831 L17.49707,34.6386658 L17.55466,17.7530258 L32.2459843,9.26321181 Z M29.1615025,15.141321 C27.928901,15.837314 25.1469683,17.41547 20.8154768,19.9127574 L20.8154768,19.9127574 L20.762067,28.762189 L29.2528948,23.9515648 Z" stroke="#0A0A0A"></path>
            </g>
        </g>
        <g id="Group" transform="translate(10.000000, 13.000000)" fill="#DCDBDB">
            <path d="M7.02114467,5.40917351 L7.02114467,4.42625238 L8.5,3.66916876 L1.49650809,0.163707354 C0.908363007,-0.129498516 0.466261137,-0.0288475429 0.170202482,0.465660273 C-0.125856172,0.960168088 -0.0356804766,1.43423026 0.440729568,1.88784678 L7.02114467,5.40917351 Z" id="Path-34"></path>
            <path d="M11.3052832,7.78570622 L11.3052832,7.16224929 L12.79464,6.29854779 L16.0531716,8.01017412 C16.5762605,8.53836006 16.6702575,9.01631883 16.3351626,9.44405041 C16.0000676,9.87178199 15.5740921,9.96187051 15.057236,9.71431597 L11.3052832,7.78570622 Z" id="Path-58"></path>
        </g>
    </g>
</svg>