<?xml version="1.0" encoding="utf-8"?>
<!-- Generator: Adobe Illustrator 24.2.2, SVG Export Plug-In . SVG Version: 6.00 Build 0)  -->
<svg version="1.1" id="Layer_1" xmlns="http://www.w3.org/2000/svg" xmlns:xlink="http://www.w3.org/1999/xlink" x="0px" y="0px"
	 viewBox="0 0 36 36" enable-background="new 0 0 36 36" xml:space="preserve">
<g id="category_functions">
	<path id="MXN_BG_ID" fill-rule="evenodd" clip-rule="evenodd" fill="#B3B3B3" stroke="#000000" d="M14.3,8.8l6.6,0l2.7,4.6l2.7-4.5
		l6.5,0L26.6,18l6.4,9.5l-6.5,0l-3-4.8l-3,4.8l-6.5,0l6.5-9.5L14.3,8.8z M14.2,2v4.7h-2.5c-0.2,0-0.4,0.1-0.5,0.3l0,0L11,9.3l3.2,0
		v4.4l-3.3,0l0,13.8l-5.4,0l0-13.8l-1.8,0V9.3l1.8,0l0-2c0-1,0.3-2,1.1-3.1c1.1-1.4,2.3-2,4-2.1l0,0L14.2,2z"/>
	<path id="MXN_FG_ID" fill-rule="evenodd" clip-rule="evenodd" fill="#B3B3B3" d="M15.2,9.3l5.4,0l3,5l3-5l5.3,0L26,18l6.1,9l-5.3,0
		l-3.3-5.3L20.3,27L15,27l6.1-9L15.2,9.3z M13.7,2.5v3.7h-2.1c-0.4,0.1-0.6,0.2-0.9,0.5c-0.2,0.2-0.3,0.5-0.3,0.7l0,0.1l0,2.2l3.3,0
		v3.4l-3.3,0l0,13.8L6,27l0-13.8l-1.8,0V9.8l1.8,0l0-2.5c0-0.9,0.3-1.8,1-2.9l0.2-0.2c0.8-1,1.9-1.6,3.4-1.7l0.3,0H13.7z"/>
</g>
</svg>
