<?xml version="1.0" encoding="UTF-8"?>
<svg width="36px" height="36px" viewBox="0 0 36 36" version="1.1" xmlns="http://www.w3.org/2000/svg" xmlns:xlink="http://www.w3.org/1999/xlink">
    <title>category_geometry</title>
    <defs>
        <linearGradient x1="42.8395392%" y1="53.0690888%" x2="50%" y2="43.5813594%" id="linearGradient-1">
            <stop stop-color="#FFFFFF" stop-opacity="0" offset="0%"></stop>
            <stop stop-color="#FFFFFF" offset="100%"></stop>
        </linearGradient>
        <linearGradient x1="50%" y1="40.831742%" x2="55.9631073%" y2="46.4797532%" id="linearGradient-2">
            <stop stop-color="#FFFFFF" stop-opacity="0" offset="0%"></stop>
            <stop stop-color="#FFFFFF" offset="100%"></stop>
        </linearGradient>
        <linearGradient x1="40.4497616%" y1="41.5074028%" x2="34.6691172%" y2="48.60763%" id="linearGradient-3">
            <stop stop-color="#FFFFFF" stop-opacity="0" offset="0%"></stop>
            <stop stop-color="#FFFFFF" offset="100%"></stop>
        </linearGradient>
        <linearGradient x1="53.7534226%" y1="53.7343229%" x2="44.948319%" y2="46.9124185%" id="linearGradient-4">
            <stop stop-color="#FFFFFF" stop-opacity="0" offset="0%"></stop>
            <stop stop-color="#FFFFFF" offset="100%"></stop>
        </linearGradient>
    </defs>
    <g id="category_geometry" stroke="none" stroke-width="1" fill="none" fill-rule="evenodd">
        <polygon id="MXN_BG_ID" fill="#A9794C" points="18 2 31.8564065 10 18 34 4.14359354 26"></polygon>
        <g id="MXN_0_ID" transform="translate(4.000000, 1.172165)">
            <polygon id="Rectangle" fill="url(#linearGradient-1)" opacity="0.174548921" points="13.9309207 0.88294257 27.6097626 9.03326773 26.8379361 11.2496198 13 3.33554039"></polygon>
            <polygon id="Rectangle" fill="url(#linearGradient-2)" opacity="0.174548921" points="27.6654972 8.85899297 13.9459468 31.9682048 11.7792586 30.7114426 25.5197934 7.65326016"></polygon>
            <polygon id="Rectangle" fill="url(#linearGradient-3)" opacity="0.13688151" points="0.202690109 22.4650628 13.9408233 29.8033753 13.9781446 32.1598853 0.193601773 24.8706983"></polygon>
            <polygon id="Rectangle" fill="url(#linearGradient-4)" opacity="0.13688151" points="3.18020727 26.3741033 16.863207 3.01294449 13.8513086 1.29396657 0.200583309 24.893734"></polygon>
        </g>
        <g id="MXN_FG_ID" transform="translate(3.000000, 1.000000)">
            <polygon id="Outline" stroke="#0A0A0A" points="15 1 29.4229005 9.20061201 15.1530216 32.8465152 1.14359354 25"></polygon>
            <line x1="8.33337632" y1="13.1019993" x2="22.1307352" y2="20.591786" id="Path-33" stroke="#0A0A0A"></line>
            <path d="M22.3096083,19.2231386 C22.6720452,19.2231386 23.0001702,19.3700452 23.2376859,19.6075609 C23.4752017,19.8450767 23.6221083,20.1732017 23.6221083,20.5356386 C23.6221083,20.8980755 23.4752017,21.2262005 23.2376859,21.4637162 C23.0001702,21.701232 22.6720452,21.8481386 22.3096083,21.8481386 C21.9471714,21.8481386 21.6190464,21.701232 21.3815306,21.4637162 C21.1440149,21.2262005 20.9971083,20.8980755 20.9971083,20.5356386 C20.9971083,20.1732017 21.1440149,19.8450767 21.3815306,19.6075609 C21.6190464,19.3700452 21.9471714,19.2231386 22.3096083,19.2231386 Z" id="Oval" stroke="#000000" stroke-width="0.875" fill="#FFFFFF"></path>
            <path d="M15.1134289,31.4907859 C15.4758658,31.4907859 15.8039908,31.6376924 16.0415066,31.8752082 C16.2790224,32.112724 16.4259289,32.440849 16.4259289,32.8032859 C16.4259289,33.1657227 16.2790224,33.4938477 16.0415066,33.7313635 C15.8039908,33.9688793 15.4758658,34.1157859 15.1134289,34.1157859 C14.7509921,34.1157859 14.4228671,33.9688793 14.1853513,33.7313635 C13.9478355,33.4938477 13.8009289,33.1657227 13.8009289,32.8032859 C13.8009289,32.440849 13.9478355,32.112724 14.1853513,31.8752082 C14.4228671,31.6376924 14.7509921,31.4907859 15.1134289,31.4907859 Z" id="Oval" stroke="#000000" stroke-width="0.875" fill="#FFFFFF"></path>
            <path d="M29.3690873,7.96089338 C29.7315242,7.96089338 30.0596492,8.10779994 30.2971649,8.34531573 C30.5346807,8.58283151 30.6815873,8.91095651 30.6815873,9.27339338 C30.6815873,9.63583024 30.5346807,9.96395524 30.2971649,10.201471 C30.0596492,10.4389868 29.7315242,10.5858934 29.3690873,10.5858934 C29.0066504,10.5858934 28.6785254,10.4389868 28.4410096,10.201471 C28.2034939,9.96395524 28.0565873,9.63583024 28.0565873,9.27339338 C28.0565873,8.91095651 28.2034939,8.58283151 28.4410096,8.34531573 C28.6785254,8.10779994 29.0066504,7.96089338 29.3690873,7.96089338 Z" id="Oval" stroke="#000000" stroke-width="0.875" fill="#FFFFFF"></path>
            <path d="M8.22243211,11.7761219 C8.58486898,11.7761219 8.91299398,11.9230285 9.15050976,12.1605443 C9.38802555,12.3980601 9.53493211,12.7261851 9.53493211,13.0886219 C9.53493211,13.4510588 9.38802555,13.7791838 9.15050976,14.0166996 C8.91299398,14.2542154 8.58486898,14.4011219 8.22243211,14.4011219 C7.85999525,14.4011219 7.53187025,14.2542154 7.29435446,14.0166996 C7.05683868,13.7791838 6.90993211,13.4510588 6.90993211,13.0886219 C6.90993211,12.7261851 7.05683868,12.3980601 7.29435446,12.1605443 C7.53187025,11.9230285 7.85999525,11.7761219 8.22243211,11.7761219 Z" id="Oval" stroke="#000000" stroke-width="0.875" fill="#FFFFFF"></path>
            <path d="M0.875,23.5625 C1.23743687,23.5625 1.56556187,23.7094066 1.80307765,23.9469223 C2.04059343,24.1844381 2.1875,24.5125631 2.1875,24.875 C2.1875,25.2374369 2.04059343,25.5655619 1.80307765,25.8030777 C1.56556187,26.0405934 1.23743687,26.1875 0.875,26.1875 C0.512563133,26.1875 0.184438133,26.0405934 -0.0530776503,25.8030777 C-0.290593434,25.5655619 -0.4375,25.2374369 -0.4375,24.875 C-0.4375,24.5125631 -0.290593434,24.1844381 -0.0530776503,23.9469223 C0.184438133,23.7094066 0.512563133,23.5625 0.875,23.5625 Z" id="Oval" stroke="#000000" stroke-width="0.875" fill="#FFFFFF"></path>
            <path d="M14.875,-0.4375 C15.2374369,-0.4375 15.5655619,-0.290593434 15.8030777,-0.0530776503 C16.0405934,0.184438133 16.1875,0.512563133 16.1875,0.875 C16.1875,1.23743687 16.0405934,1.56556187 15.8030777,1.80307765 C15.5655619,2.04059343 15.2374369,2.1875 14.875,2.1875 C14.5125631,2.1875 14.1844381,2.04059343 13.9469223,1.80307765 C13.7094066,1.56556187 13.5625,1.23743687 13.5625,0.875 C13.5625,0.512563133 13.7094066,0.184438133 13.9469223,-0.0530776503 C14.1844381,-0.290593434 14.5125631,-0.4375 14.875,-0.4375 Z" id="Oval" stroke="#000000" stroke-width="0.875" fill="#FFFFFF"></path>
        </g>
    </g>
</svg>