<?xml version="1.0" encoding="UTF-8"?>
<svg width="36px" height="36px" viewBox="0 0 36 36" version="1.1" xmlns="http://www.w3.org/2000/svg" xmlns:xlink="http://www.w3.org/1999/xlink">
    <title>category_operators</title>
    <g id="category_operators" stroke="none" stroke-width="1" fill="none" fill-rule="evenodd">
        <g id="MXN_BG_ID" transform="translate(-3.500000, -11.500000)" fill="#86D2A5">
            <g id="bg_round" transform="translate(0.000000, 19.000000)">
                <path d="M18.1627521,8.87136052 C18.3753017,8.87136052 18.5646201,9.00573854 18.6347511,9.20638486 L19.5975182,11.9623994 C19.8412223,12.0883142 20.0746183,12.2313942 20.2961067,12.39004 L23.204168,11.8585186 C23.4120852,11.8204911 23.6214542,11.9173115 23.7271373,12.1003599 L24.7058851,13.7956008 C24.8121598,13.9796741 24.7904443,14.2108177 24.651745,14.3718761 L22.6582603,16.6886869 C22.6638404,16.7917496 22.6666667,16.8955448 22.6666667,17 C22.6666667,17.1081617 22.6636363,17.2156156 22.6576558,17.3222815 L24.6396382,19.6551741 C24.7765296,19.8162218 24.7973652,20.0459509 24.6916822,20.2289994 L23.7129344,21.9242403 C23.6066596,22.1083136 23.3956256,22.2050791 23.1867953,22.1654912 L20.287212,21.6163181 C20.0656647,21.7743621 19.832259,21.9168554 19.5885888,22.0422041 L18.6052716,24.7966554 C18.5342459,24.9957307 18.3457125,25.1286395 18.1343463,25.1286395 L16.1768508,25.1286395 C15.9643012,25.1286395 15.7749828,24.9942615 15.7048518,24.7936151 L14.8067322,22.2266022 C14.4415922,22.073193 14.0959076,21.8826366 13.7744082,21.6596623 L11.1354349,22.1414814 C10.9275177,22.1795089 10.7181487,22.0826885 10.6124656,21.8996401 L9.63371781,20.2043992 C9.52744305,20.0203259 9.5491586,19.7891823 9.68785791,19.6281239 L11.372623,17.6708141 C11.3466771,17.4508205 11.3333333,17.2269686 11.3333333,17 C11.3333333,16.7677917 11.3473004,16.5388455 11.3744401,16.3139558 L9.69996469,14.3448259 C9.56307329,14.1837782 9.54223765,13.9540491 9.64792071,13.7710006 L10.6266685,12.0757597 C10.7329433,11.8916864 10.9439773,11.7949209 11.1528076,11.8345088 L13.7844031,12.3334216 C14.1065854,12.1109932 14.4529312,11.9210684 14.8187029,11.7683847 L15.7343313,9.20334458 C15.805357,9.00426927 15.9938904,8.87136052 16.2052566,8.87136052 L18.1627521,8.87136052 Z M17,14.1666667 C15.4351932,14.1666667 14.1666667,15.4351932 14.1666667,17 C14.1666667,18.5648068 15.4351932,19.8333333 17,19.8333333 C18.5648068,19.8333333 19.8333333,18.5648068 19.8333333,17 C19.8333333,15.4351932 18.5648068,14.1666667 17,14.1666667 Z" id="Combined-Shape"></path>
            </g>
            <g id="Group" transform="translate(7.491126, 6.444796)">
                <g id="bg_round" transform="translate(17.000000, 17.000000) rotate(-28.000000) translate(-17.000000, -17.000000) ">
                    <path d="M18.1627521,8.87136052 C18.3753017,8.87136052 18.5646201,9.00573854 18.6347511,9.20638486 L19.5975182,11.9623994 C19.8412223,12.0883142 20.0746183,12.2313942 20.2961067,12.39004 L23.204168,11.8585186 C23.4120852,11.8204911 23.6214542,11.9173115 23.7271373,12.1003599 L24.7058851,13.7956008 C24.8121598,13.9796741 24.7904443,14.2108177 24.651745,14.3718761 L22.6582603,16.6886869 C22.6638404,16.7917496 22.6666667,16.8955448 22.6666667,17 C22.6666667,17.1081617 22.6636363,17.2156156 22.6576558,17.3222815 L24.6396382,19.6551741 C24.7765296,19.8162218 24.7973652,20.0459509 24.6916822,20.2289994 L23.7129344,21.9242403 C23.6066596,22.1083136 23.3956256,22.2050791 23.1867953,22.1654912 L20.287212,21.6163181 C20.0656647,21.7743621 19.832259,21.9168554 19.5885888,22.0422041 L18.6052716,24.7966554 C18.5342459,24.9957307 18.3457125,25.1286395 18.1343463,25.1286395 L16.1768508,25.1286395 C15.9643012,25.1286395 15.7749828,24.9942615 15.7048518,24.7936151 L14.8067322,22.2266022 C14.4415922,22.073193 14.0959076,21.8826366 13.7744082,21.6596623 L11.1354349,22.1414814 C10.9275177,22.1795089 10.7181487,22.0826885 10.6124656,21.8996401 L9.63371781,20.2043992 C9.52744305,20.0203259 9.5491586,19.7891823 9.68785791,19.6281239 L11.372623,17.6708141 C11.3466771,17.4508205 11.3333333,17.2269686 11.3333333,17 C11.3333333,16.7677917 11.3473004,16.5388455 11.3744401,16.3139558 L9.69996469,14.3448259 C9.56307329,14.1837782 9.54223765,13.9540491 9.64792071,13.7710006 L10.6266685,12.0757597 C10.7329433,11.8916864 10.9439773,11.7949209 11.1528076,11.8345088 L13.7844031,12.3334216 C14.1065854,12.1109932 14.4529312,11.9210684 14.8187029,11.7683847 L15.7343313,9.20334458 C15.805357,9.00426927 15.9938904,8.87136052 16.2052566,8.87136052 L18.1627521,8.87136052 Z M17,14.1666667 C15.4351932,14.1666667 14.1666667,15.4351932 14.1666667,17 C14.1666667,18.5648068 15.4351932,19.8333333 17,19.8333333 C18.5648068,19.8333333 19.8333333,18.5648068 19.8333333,17 C19.8333333,15.4351932 18.5648068,14.1666667 17,14.1666667 Z" id="Combined-Shape"></path>
                </g>
            </g>
        </g>
        <g id="MXN_FG_ID" transform="translate(-3.500000, -11.500000)" stroke="#0A0A0A">
            <g id="bg_round" transform="translate(0.000000, 19.000000)">
                <path d="M18.1627521,8.87136052 C18.3753017,8.87136052 18.5646201,9.00573854 18.6347511,9.20638486 L19.5975182,11.9623994 C19.8412223,12.0883142 20.0746183,12.2313942 20.2961067,12.39004 L23.204168,11.8585186 C23.4120852,11.8204911 23.6214542,11.9173115 23.7271373,12.1003599 L24.7058851,13.7956008 C24.8121598,13.9796741 24.7904443,14.2108177 24.651745,14.3718761 L22.6582603,16.6886869 C22.6638404,16.7917496 22.6666667,16.8955448 22.6666667,17 C22.6666667,17.1081617 22.6636363,17.2156156 22.6576558,17.3222815 L24.6396382,19.6551741 C24.7765296,19.8162218 24.7973652,20.0459509 24.6916822,20.2289994 L23.7129344,21.9242403 C23.6066596,22.1083136 23.3956256,22.2050791 23.1867953,22.1654912 L20.287212,21.6163181 C20.0656647,21.7743621 19.832259,21.9168554 19.5885888,22.0422041 L18.6052716,24.7966554 C18.5342459,24.9957307 18.3457125,25.1286395 18.1343463,25.1286395 L16.1768508,25.1286395 C15.9643012,25.1286395 15.7749828,24.9942615 15.7048518,24.7936151 L14.8067322,22.2266022 C14.4415922,22.073193 14.0959076,21.8826366 13.7744082,21.6596623 L11.1354349,22.1414814 C10.9275177,22.1795089 10.7181487,22.0826885 10.6124656,21.8996401 L9.63371781,20.2043992 C9.52744305,20.0203259 9.5491586,19.7891823 9.68785791,19.6281239 L11.372623,17.6708141 C11.3466771,17.4508205 11.3333333,17.2269686 11.3333333,17 C11.3333333,16.7677917 11.3473004,16.5388455 11.3744401,16.3139558 L9.69996469,14.3448259 C9.56307329,14.1837782 9.54223765,13.9540491 9.64792071,13.7710006 L10.6266685,12.0757597 C10.7329433,11.8916864 10.9439773,11.7949209 11.1528076,11.8345088 L13.7844031,12.3334216 C14.1065854,12.1109932 14.4529312,11.9210684 14.8187029,11.7683847 L15.7343313,9.20334458 C15.805357,9.00426927 15.9938904,8.87136052 16.2052566,8.87136052 L18.1627521,8.87136052 Z M17,14.1666667 C15.4351932,14.1666667 14.1666667,15.4351932 14.1666667,17 C14.1666667,18.5648068 15.4351932,19.8333333 17,19.8333333 C18.5648068,19.8333333 19.8333333,18.5648068 19.8333333,17 C19.8333333,15.4351932 18.5648068,14.1666667 17,14.1666667 Z" id="Combined-Shape"></path>
            </g>
            <g id="Group" transform="translate(7.491126, 6.444796)">
                <g id="bg_round" transform="translate(17.000000, 17.000000) rotate(-28.000000) translate(-17.000000, -17.000000) ">
                    <path d="M18.1627521,8.87136052 C18.3753017,8.87136052 18.5646201,9.00573854 18.6347511,9.20638486 L19.5975182,11.9623994 C19.8412223,12.0883142 20.0746183,12.2313942 20.2961067,12.39004 L23.204168,11.8585186 C23.4120852,11.8204911 23.6214542,11.9173115 23.7271373,12.1003599 L24.7058851,13.7956008 C24.8121598,13.9796741 24.7904443,14.2108177 24.651745,14.3718761 L22.6582603,16.6886869 C22.6638404,16.7917496 22.6666667,16.8955448 22.6666667,17 C22.6666667,17.1081617 22.6636363,17.2156156 22.6576558,17.3222815 L24.6396382,19.6551741 C24.7765296,19.8162218 24.7973652,20.0459509 24.6916822,20.2289994 L23.7129344,21.9242403 C23.6066596,22.1083136 23.3956256,22.2050791 23.1867953,22.1654912 L20.287212,21.6163181 C20.0656647,21.7743621 19.832259,21.9168554 19.5885888,22.0422041 L18.6052716,24.7966554 C18.5342459,24.9957307 18.3457125,25.1286395 18.1343463,25.1286395 L16.1768508,25.1286395 C15.9643012,25.1286395 15.7749828,24.9942615 15.7048518,24.7936151 L14.8067322,22.2266022 C14.4415922,22.073193 14.0959076,21.8826366 13.7744082,21.6596623 L11.1354349,22.1414814 C10.9275177,22.1795089 10.7181487,22.0826885 10.6124656,21.8996401 L9.63371781,20.2043992 C9.52744305,20.0203259 9.5491586,19.7891823 9.68785791,19.6281239 L11.372623,17.6708141 C11.3466771,17.4508205 11.3333333,17.2269686 11.3333333,17 C11.3333333,16.7677917 11.3473004,16.5388455 11.3744401,16.3139558 L9.69996469,14.3448259 C9.56307329,14.1837782 9.54223765,13.9540491 9.64792071,13.7710006 L10.6266685,12.0757597 C10.7329433,11.8916864 10.9439773,11.7949209 11.1528076,11.8345088 L13.7844031,12.3334216 C14.1065854,12.1109932 14.4529312,11.9210684 14.8187029,11.7683847 L15.7343313,9.20334458 C15.805357,9.00426927 15.9938904,8.87136052 16.2052566,8.87136052 L18.1627521,8.87136052 Z M17,14.1666667 C15.4351932,14.1666667 14.1666667,15.4351932 14.1666667,17 C14.1666667,18.5648068 15.4351932,19.8333333 17,19.8333333 C18.5648068,19.8333333 19.8333333,18.5648068 19.8333333,17 C19.8333333,15.4351932 18.5648068,14.1666667 17,14.1666667 Z" id="Combined-Shape"></path>
                </g>
            </g>
        </g>
    </g>
</svg>