<?xml version="1.0" encoding="UTF-8"?>
<svg width="36px" height="36px" viewBox="0 0 36 36" version="1.1" xmlns="http://www.w3.org/2000/svg" xmlns:xlink="http://www.w3.org/1999/xlink">
    <title>category_material</title>
    <defs>
        <filter x="-12.0%" y="-22.0%" width="123.9%" height="144.0%" filterUnits="objectBoundingBox" id="filter-1">
            <feGaussianBlur stdDeviation="0.5" in="SourceGraphic"></feGaussianBlur>
        </filter>
        <filter x="-12.0%" y="-22.1%" width="124.0%" height="144.2%" filterUnits="objectBoundingBox" id="filter-2">
            <feGaussianBlur stdDeviation="0.5" in="SourceGraphic"></feGaussianBlur>
        </filter>
        <filter x="25.0%" y="0.0%" width="50.0%" height="100.0%" filterUnits="objectBoundingBox" id="filter-3">
            <feGaussianBlur stdDeviation="0" in="SourceGraphic"></feGaussianBlur>
        </filter>
        <linearGradient x1="42.8037135%" y1="53.1696095%" x2="50%" y2="45.6286318%" id="linearGradient-4">
            <stop stop-color="#FFFFFF" stop-opacity="0" offset="0%"></stop>
            <stop stop-color="#FFFFFF" offset="100%"></stop>
        </linearGradient>
        <linearGradient x1="50%" y1="46.0624456%" x2="55.5481229%" y2="52.4303566%" id="linearGradient-5">
            <stop stop-color="#FFFFFF" stop-opacity="0" offset="0%"></stop>
            <stop stop-color="#FFFFFF" offset="100%"></stop>
        </linearGradient>
        <linearGradient x1="61.5712477%" y1="50.9523294%" x2="55.207318%" y2="41.5088907%" id="linearGradient-6">
            <stop stop-color="#FFFFFF" stop-opacity="0" offset="0%"></stop>
            <stop stop-color="#FFFFFF" offset="100%"></stop>
        </linearGradient>
        <linearGradient x1="55.5481229%" y1="47.422347%" x2="48.0694327%" y2="54.1562185%" id="linearGradient-7">
            <stop stop-color="#FFFFFF" stop-opacity="0" offset="0%"></stop>
            <stop stop-color="#FFFFFF" offset="100%"></stop>
        </linearGradient>
        <linearGradient x1="41.7250193%" y1="54.9249431%" x2="50%" y2="45.3483802%" id="linearGradient-8">
            <stop stop-color="#FFFFFF" stop-opacity="0" offset="0%"></stop>
            <stop stop-color="#FFFFFF" offset="100%"></stop>
        </linearGradient>
        <linearGradient x1="43.5299728%" y1="36.8734944%" x2="34.6691172%" y2="48.3967056%" id="linearGradient-9">
            <stop stop-color="#FFFFFF" stop-opacity="0" offset="0%"></stop>
            <stop stop-color="#FFFFFF" offset="100%"></stop>
        </linearGradient>
        <linearGradient x1="51.1675435%" y1="46.5790913%" x2="48.4241653%" y2="47.2457198%" id="linearGradient-10">
            <stop stop-color="#FFFFFF" stop-opacity="0" offset="0%"></stop>
            <stop stop-color="#FFFFFF" offset="100%"></stop>
        </linearGradient>
        <linearGradient x1="0%" y1="56.4343492%" x2="100%" y2="56.4343492%" id="linearGradient-11">
            <stop stop-color="#FFFFFF" stop-opacity="0" offset="0%"></stop>
            <stop stop-color="#FFFFFF" offset="100%"></stop>
        </linearGradient>
        <linearGradient x1="57.8125%" y1="54.1706621%" x2="47.6360887%" y2="42.1430633%" id="linearGradient-12">
            <stop stop-color="#FFFFFF" stop-opacity="0" offset="0%"></stop>
            <stop stop-color="#FFFFFF" offset="100%"></stop>
        </linearGradient>
        <linearGradient x1="43.1314688%" y1="45.368605%" x2="53.690195%" y2="59.4777919%" id="linearGradient-13">
            <stop stop-color="#FFFFFF" stop-opacity="0" offset="0%"></stop>
            <stop stop-color="#FFFFFF" offset="100%"></stop>
        </linearGradient>
        <linearGradient x1="100%" y1="43.5552284%" x2="0%" y2="43.5552284%" id="linearGradient-14">
            <stop stop-color="#FFFFFF" stop-opacity="0" offset="0%"></stop>
            <stop stop-color="#FFFFFF" offset="100%"></stop>
        </linearGradient>
    </defs>
    <g id="category_material" stroke="none" stroke-width="1" fill="none" fill-rule="evenodd">
        <polygon id="MXN_BG_ID" fill="#BDA846" points="18 2 31.8564065 10 31.8564065 26 18 34 4.14359354 26 4.14359354 10"></polygon>
        <g id="MXN_0_ID" transform="translate(5.000000, 6.923967)" fill="#000000">
            <polygon id="Path-27" points="19.6776318 3.99680289e-15 26.0361838 3.50495991 19.4586895 7.326182 13.1190468 3.65210846"></polygon>
            <polygon id="Path-27" points="25.8510061 11.2537052 26.0361838 3.50495991 19.4586895 7.326182 19.2924212 14.9058136"></polygon>
            <polygon id="Path-27" points="19.1501139 22.596955 19.2420887 14.9634907 12.9225212 18.4900629 12.7562528 26.0696945"></polygon>
            <polygon id="Path-27" points="6.55858499 0.0760329915 12.9171369 3.5809929 6.33964271 7.40221499 2.09320731e-13 3.72814145"></polygon>
            <polygon id="Path-27" points="6.56713503 14.8435317 12.9243481 18.5202275 12.9091755 25.9683063 6.55806727 22.1586438"></polygon>
            <polygon id="Path-27" points="0.120412254 3.73981297 6.47762537 7.41650881 6.46245273 14.8645876 0.111344494 11.0549251"></polygon>
        </g>
        <g id="MXN_1_ID" transform="translate(4.000000, 2.172165)">
            <line x1="27.5899774" y1="8.01698801" x2="14" y2="15.8278352" id="Path-4" stroke="#FFFFFF" stroke-width="0.5" opacity="0.21312314" filter="url(#filter-1)"></line>
            <line x1="14" y1="8.06215174" x2="0.475546511" y2="15.8278352" id="Path-4" stroke="#FFFFFF" stroke-width="0.5" opacity="0.21312314" filter="url(#filter-2)" transform="translate(7.237773, 11.944993) scale(-1, 1) translate(-7.237773, -11.944993) "></line>
            <line x1="14.0355746" y1="31.1827125" x2="14.0355746" y2="15.8278352" id="Path-7" stroke="#FFFFFF" stroke-width="0.5" opacity="0.21312314" filter="url(#filter-3)"></line>
            <polygon id="Rectangle" fill="url(#linearGradient-4)" opacity="0.174548921" points="13.9309207 0.138294359 27.6475541 8.07096012 25.6200069 9.18946218 12.1907027 1.1153194"></polygon>
            <polygon id="Rectangle" fill="url(#linearGradient-5)" opacity="0.174548921" points="27.5204301 8.00136879 14.0310535 15.7995602 11.7617246 14.4886235 25.3747262 6.79563598"></polygon>
            <polygon id="Rectangle" fill="url(#linearGradient-6)" opacity="0.174548921" points="16.2345307 1.36050671 2.93459269 9.48287785 0.544837488 8.09729183 14.0725722 0.17380137"></polygon>
            <polygon id="Rectangle" fill="url(#linearGradient-7)" opacity="0.174548921" points="0.422362993 8.0899421 13.9817299 15.8720598 16.422363 14.6457857 2.33754968 6.87205983"></polygon>
            <polygon id="Rectangle" fill="url(#linearGradient-8)" opacity="0.13688151" points="0.435310763 7.94355525 14.0725722 15.9321527 14.020951 18.2483554 0.456183199 10.4158654"></polygon>
            <polygon id="Rectangle" fill="url(#linearGradient-9)" opacity="0.13688151" points="0.465271536 21.1882513 14.0233281 29.0990898 14.0606494 31.4555998 0.456183199 23.5938868"></polygon>
            <polygon id="Rectangle" fill="url(#linearGradient-10)" opacity="0.13688151" points="3.44278869 25.0972918 3.4561832 9.53116682 0.456183199 8.09729183 0.641440412 23.6845967"></polygon>
            <polygon id="Rectangle" fill="url(#linearGradient-11)" opacity="0.13688151" points="13.7709403 31.3300487 14 15.8278352 11.1399432 14.3300487 11 29.7829409"></polygon>
            <polygon id="Rectangle" fill="url(#linearGradient-12)" opacity="0.13688151" points="14 15.8278352 27.5247114 8.01848551 27.6808991 11.3016093 14.0103856 18.8278352"></polygon>
            <polygon id="Rectangle" fill="url(#linearGradient-13)" opacity="0.13688151" points="14 28.3791527 27.6005543 20.3612453 27.6005543 23.695112 14 31.1714072"></polygon>
            <polygon id="Rectangle" fill="url(#linearGradient-14)" opacity="0.13688151" points="17.0069133 29.6250991 16.9314075 14.1137666 14.0355746 15.8278352 14.0069133 31.1137666"></polygon>
            <polygon id="Rectangle" fill="url(#linearGradient-11)" opacity="0.13688151" points="27.41575 23.3136104 27.3858492 8.09729183 24.5228838 9.94455032 24.41575 25.0972918"></polygon>
            <polygon id="Path-10" fill="#1A1A19" opacity="0.3" points="14.0779365 15.8776883 27.6005543 8.07087024 27.561031 23.6369038 14.0355746 31.4378262"></polygon>
            <polygon id="Path-10" fill="#1A1A19" opacity="0.166457403" transform="translate(7.262038, 19.783281) scale(-1, 1) translate(-7.262038, -19.783281) " points="0.50487755 15.8148005 13.9792377 8.09729183 14.0678919 23.5938868 0.456183199 31.46927"></polygon>
            <path d="M14.0449069,16.3802173 C14.3210492,16.3802173 14.5449069,16.1563597 14.5449069,15.8802173 C14.5449069,15.604075 14.3210492,15.3802173 14.0449069,15.3802173 C13.7687645,15.3802173 13.5449069,15.604075 13.5449069,15.8802173 C13.5449069,16.1563597 13.7687645,16.3802173 14.0449069,16.3802173 Z" id="Oval" fill="#FFFFFF" opacity="0.385951451"></path>
        </g>
        <path d="M18,2.57735027 L31.3564065,10.2886751 L31.3564065,25.7113249 L18,33.4226497 L4.64359354,25.7113249 L4.64359354,10.2886751 L18,2.57735027 Z" id="MXN_FG_ID" stroke="#0A0A0A"></path>
    </g>
</svg>