<?xml version="1.0" encoding="UTF-8"?>
<svg width="36px" height="36px" viewBox="0 0 36 36" version="1.1" xmlns="http://www.w3.org/2000/svg" xmlns:xlink="http://www.w3.org/1999/xlink">
    <title>category_structure</title>
    <defs>
        <radialGradient cx="50%" cy="50%" fx="50%" fy="50%" r="63.4188408%" gradientTransform="translate(0.500000,0.500000),scale(0.800000,1.000000),rotate(90.000000),scale(1.000000,1.560683),translate(-0.500000,-0.500000)" id="radialGradient-1">
            <stop stop-color="#FFFFFF" stop-opacity="0" offset="0%"></stop>
            <stop stop-color="#FFFFFF" stop-opacity="0" offset="46.4133523%"></stop>
            <stop stop-color="#FFFFFF" offset="100%"></stop>
        </radialGradient>
    </defs>
    <g id="category_structure" stroke="none" stroke-width="1" fill="none" fill-rule="evenodd">
        <path d="M30,19 C30.5522847,19 31,19.4477153 31,20 L31,26 C31,26.5522847 30.5522847,27 30,27 L22,27 C21.4477153,27 21,26.5522847 21,26 L21,20 C21,19.4477153 21.4477153,19 22,19 L30,19 Z M14,14 C14.5522847,14 15,14.4477153 15,15 L15,21 C15,21.5522847 14.5522847,22 14,22 L6,22 C5.44771525,22 5,21.5522847 5,21 L5,15 C5,14.4477153 5.44771525,14 6,14 L14,14 Z M30,9 C30.5522847,9 31,9.44771525 31,10 L31,16 C31,16.5522847 30.5522847,17 30,17 L22,17 C21.4477153,17 21,16.5522847 21,16 L21,10 C21,9.44771525 21.4477153,9 22,9 L30,9 Z" id="MXN_BG_ID" fill="#C5C5C5"></path>
        <g id="MXN_0_ID" transform="translate(5.000000, 9.000000)">
            <polyline id="Path-30" stroke="#C7C7C7" stroke-linecap="round" points="16 4 13 4 13 9 10 9"></polyline>
            <polyline id="Path-30" stroke="#C7C7C7" stroke-linecap="round" points="16 14 13 14 13 9 10 9"></polyline>
            <rect id="Rectangle" fill="url(#radialGradient-1)" opacity="0.773065476" x="0" y="5" width="10" height="8" rx="1"></rect>
            <rect id="Rectangle" fill="url(#radialGradient-1)" opacity="0.773065476" x="16" y="0" width="10" height="8" rx="1"></rect>
            <rect id="Rectangle" fill="url(#radialGradient-1)" opacity="0.773065476" x="16" y="10" width="10" height="8" rx="1"></rect>
        </g>
        <path d="M30,19 C30.5522847,19 31,19.4477153 31,20 L31,26 C31,26.5522847 30.5522847,27 30,27 L22,27 C21.4477153,27 21,26.5522847 21,26 L21,20 C21,19.4477153 21.4477153,19 22,19 L30,19 Z M14,14 C14.5522847,14 15,14.4477153 15,15 L15,21 C15,21.5522847 14.5522847,22 14,22 L6,22 C5.44771525,22 5,21.5522847 5,21 L5,15 C5,14.4477153 5.44771525,14 6,14 L14,14 Z M30,9 C30.5522847,9 31,9.44771525 31,10 L31,16 C31,16.5522847 30.5522847,17 30,17 L22,17 C21.4477153,17 21,16.5522847 21,16 L21,10 C21,9.44771525 21.4477153,9 22,9 L30,9 Z" id="MXN_FG_ID" stroke="#0A0A0A"></path>
    </g>
</svg>